<mxfile host="app.diagrams.net" modified="2020-10-06T10:22:58.382Z" agent="5.0 (Windows NT 10.0; Win64; x64) AppleWebKit/537.36 (KHTML, like Gecko) Chrome/85.0.4183.83 Safari/537.36" etag="PPY-CFX5cF0NTO1DHfnX" version="13.7.7" type="github">
  <diagram id="4Zgy66-phFbGBRuDP2bV" name="Seite-1">
    <mxGraphModel dx="1874" dy="958" grid="1" gridSize="10" guides="1" tooltips="1" connect="1" arrows="1" fold="1" page="1" pageScale="1" pageWidth="827" pageHeight="1169" math="1" shadow="0">
      <root>
        <mxCell id="0" />
        <mxCell id="1" parent="0" />
        <mxCell id="HDMQ9oWZRbvWbr3XCpym-58" value="" style="shape=image;imageAspect=0;aspect=fixed;verticalLabelPosition=bottom;verticalAlign=top;labelBackgroundColor=#ffffff;strokeWidth=2;fontFamily=Courier New;fontSize=12;fontColor=#000000;align=right;image=data:image/jpeg,/9j/4AAQSkZJRgABAQAAAQABAAD/7QBWUGhvdG9zaG9wIDMuMAA4QklNBAQAAAAAAB4cAVoAAxslRxwCAAACAAIcAnQACkphbiBSeXNhdnk4QklNBCUAAAAAABDjlulcOLuItevXArhnhaev/+EAMEV4aWYAAElJKgAIAAAAAQCYggIACwAAABoAAAAAAAAASmFuIFJ5c2F2eQAAAAD/4QP1aHR0cDovL25zLmFkb2JlLmNvbS94YXAvMS4wLwA8P3hwYWNrZXQgYmVnaW49Iu+7vyIgaWQ9Ilc1TTBNcENlaGlIenJlU3pOVGN6a2M5ZCI/PiA8eDp4bXBtZXRhIHhtbG5zOng9ImFkb2JlOm5zOm1ldGEvIiB4OnhtcHRrPSJBZG9iZSBYTVAgQ29yZSA1LjYtYzE0MCA3OS4xNjA0NTEsIDIwMTcvMDUvMDYtMDE6MDg6MjEgICAgICAgICI+IDxyZGY6UkRGIHhtbG5zOnJkZj0iaHR0cDovL3d3dy53My5vcmcvMTk5OS8wMi8yMi1yZGYtc3ludGF4LW5zIyI+IDxyZGY6RGVzY3JpcHRpb24gcmRmOmFib3V0PSIiIHhtbG5zOnhtcE1NPSJodHRwOi8vbnMuYWRvYmUuY29tL3hhcC8xLjAvbW0vIiB4bWxuczpzdFJlZj0iaHR0cDovL25zLmFkb2JlLmNvbS94YXAvMS4wL3NUeXBlL1Jlc291cmNlUmVmIyIgeG1sbnM6ZGM9Imh0dHA6Ly9wdXJsLm9yZy9kYy9lbGVtZW50cy8xLjEvIiB4bWxuczp4bXA9Imh0dHA6Ly9ucy5hZG9iZS5jb20veGFwLzEuMC8iIHhtcE1NOkRvY3VtZW50SUQ9InhtcC5kaWQ6RDc4RDUzRkFDMjcwMTFFOTg0NjlCRjZFRTg2MzVENzQiIHhtcE1NOkluc3RhbmNlSUQ9InhtcC5paWQ6RDc4RDUzRjlDMjcwMTFFOTg0NjlCRjZFRTg2MzVENzQiIHhtcDpDcmVhdG9yVG9vbD0iQWRvYmUgUGhvdG9zaG9wIENDIDIwMTggTWFjaW50b3NoIj4gPHhtcE1NOkRlcml2ZWRGcm9tIHN0UmVmOmluc3RhbmNlSUQ9IjkwMUE3M0JCMDAxQjk3N0MzQUFBNkU3RDE0QkEwNkQzIiBzdFJlZjpkb2N1bWVudElEPSI5MDFBNzNCQjAwMUI5NzdDM0FBQTZFN0QxNEJBMDZEMyIvPiA8ZGM6cmlnaHRzPiA8cmRmOkFsdD4gPHJkZjpsaSB4bWw6bGFuZz0ieC1kZWZhdWx0Ij5KYW4gUnlzYXZ5PC9yZGY6bGk+IDwvcmRmOkFsdD4gPC9kYzpyaWdodHM+IDxkYzpjcmVhdG9yPiA8cmRmOlNlcT4gPHJkZjpsaT5qYW5yeXNhdnk8L3JkZjpsaT4gPC9yZGY6U2VxPiA8L2RjOmNyZWF0b3I+IDwvcmRmOkRlc2NyaXB0aW9uPiA8L3JkZjpSREY+IDwveDp4bXBtZXRhPiA8P3hwYWNrZXQgZW5kPSJyIj8+/9sAQwAGBAUGBQQGBgUGBwcGCAoQCgoJCQoUDg8MEBcUGBgXFBYWGh0lHxobIxwWFiAsICMmJykqKRkfLTAtKDAlKCko/9sAQwEHBwcKCAoTCgoTKBoWGigoKCgoKCgoKCgoKCgoKCgoKCgoKCgoKCgoKCgoKCgoKCgoKCgoKCgoKCgoKCgoKCgo/8AAEQgBcgKeAwERAAIRAQMRAf/EABwAAQACAwEBAQAAAAAAAAAAAAAFBgMEBwIIAf/EAEcQAAIBAwMDAwIEAggDBgYBBQECAwAEEQUSIQYxQRNRYSJxBxQygUKRCBUjUqGxwdFicvAWJDOCkvElQ1OisuFjRWVzwtL/xAAbAQEAAwEBAQEAAAAAAAAAAAAAAQIDBAUGB//EADsRAAIBAwIEBAQFAwMEAgMAAAABAgMREgQhIjEyQRNCUWEFUnGBkaGxwfAUI9Fi4fEGFTNyFiSCstL/2gAMAwEAAhEDEQA/APqmgFAKAUAoBQCgFAKAUAoBQCgFAKAUAoBQCgFAKAUAoBQCgFAKAUAoBQCgFAKAUAoBQCgFAKAUAoBQCgFAKAUAoBQCgFAKAUAoBQCgFAKAUAoBQCgFAKAUAoBQCgFAKAUAoBQCgFAKAUAoBQCgFAKAUAoBQCgFAKAUAoBQCgFAKAUAoBQCgFAKAUAoBQCgFAKAUAoBQCgFAKAUAoBQCgFAKAUAoBQEPrHUui6KrHVdVsrUr/DLMob+XerRg5dKKuSXMr9x+JehKWFmLy9x2aKLCn92Iq3hSK+IiJuPxMuX4stHVfme4yf5KD/nVlS9yPENKXrzqKbiKOwh/wCWNnP+LVbwkRmzX/7W9TM31ahEnwtqo/zzU+HAjNnsdRdStyNW/YQR/wD/ADTCAyZ6TqTqQf8A9TLfe3jP+lPDiMpGVeq+po+fzNrIPZ7cD/IinhwGczZj691qPAmsbGXHfaWQ/wCtV8JE+IyStfxFjJAvdKuY/donWQf6VDo+5PikrB1509IyJNfraSOcKt0pjz+54/xqvhT9C3iRLFa3UF3H6lrPFOn96Nww/mKztYumZ6AUAoBQCgFAKAUAoBQCgFAKAUAoBQCgFAKAUAoBQCgFAKAUAoBQCgFAKAUAoBQCgFAKAUAoBQCgFAKAUAoBQCgFAKAUAoBQCgFAKAUAoBQCgFAKAUAoBQCgFAKAUAoCE6g6o0Xp+Mtq2owW7YyIy2ZG+yDk/wAqtGDl0lXJLmc21r8Y2mwnTunx7WOFub6TAx5IRe/7kVvHT/MZut6FS1nVdb1uI/111DcNDIDi2tJBbI474G3k/ck1rGKXSjNtvmyE/qnTLSFP+5B5m5At43kdj7F8c/ua1Tm+5WyJDSrXU5VdLO0/qtMgkyqrye36QMA/c0lh5twr/Q8XmrajpV+1vJHNckxgIz2p2Zz3JjGSfjgVaNKE1l+4cmmSun3WrzQqZYA0jsP/AA4OVHyM8fvzVJQgiU2Wf8uYYUEgEspOD6YA498Z7fasDQ01u0E/pTWcsf1ABgyuCPGfY/FXw9ytzV1HWjbQMbTSLy4nBACSAIo5xknn/AVeNK/U0Q5exESdR6t+Z2jRodhYBYt5Ln4yPP7Vp4ELcyub9Df1TWbvTEjlubCyET4AU3BDgkZPGMY8Z81SFOE+lv8AAlyaPcPUulFLVLghLq4k9IxRncUbvknA+n580dCe+PIZo27z+q7nMEwDtzgFTkH2B8HnFUUZx4iXYoVtq1/pGoSLHbyQwR5KujNFKgA8sAA4+a6pUlNe5ipNMvfTn4namI19R5ZuOIr23Klv+WQAA/fmuSppVE2jWZf9K/EPTLkhL+Kawfyzjcg/8w7fuBXNKi4mqqouFtcQXcKy2s0c0TdnjYMD+4rI1TM1AKAUAoBQCgFAKAUAoBQCgFAKAUAoBQCgFAKAUAoBQCgFAKAUAoBQCgFAKAUAoBQCgFAKAUAoBQCgFAKAUAoBQCgFAKAUAoBQCgFAKAUAoBQCgFAKAUAoCu9UdYaN01H/APErofmCMpbRDfK/2Xx9zgfNWjBy5FXJI5P1H1/1TryMmjrFotoQQCW3zMPdmx9P2Xn5reMKcercyc2+k5lPeWVlMBLcR388nMsj5Bc5Ockkk+2W8V2Qg5rK1jFtIzWYm1Rla8gEELEBPTXgD2AH+vYVdpQ6SOoszY0eVDOvpRrH9FtEnrT7PcnOEX4J+9ZLj6f9i/Sb1r1LBNdx2WjiG+uym5lEhkdcjjgDAHvzUOjZZT2RKn5YlysUnktomnUJIVBZR2DeQKwdr8JojeigYKVH07u+3g/vVbk2MQ0lFlMsTOjEAFQcIfkj3qXNjE/IFK5X8udq/wB5s8+c+9VchYzJG8n6bZEBHBODk/bwKZCx4ubGRPrgjiZ2G1lfIBHfj5qyqLzEOJpC0jDGK3KO8uZSrLn03xyQf9P5U8ZDAjLzp24uGLM0aZGSJQCyt/wtj6hj37Vt48EU8NmK36N03McosUE20q4dic/Jye32qj1VT1JVJehOWWkJGu25BfHYHODzwfvVfEbJxIzqVYYxErW8sqkEegJCIyPcrUeI4lZIgLSdVSS3si0MXf0i5cfYEn/CsfEu8iV8okMvohSQ6EjhhnH7VZTaJaNLTtX1jQL0vBFcW0LMcT2+SAPBkTJBHzgmur+1VWN9/f8AYy44HSum/wAS1kCx61ErIcYvLUFkYY/UU7j9s/asJ6dx6TWNb5jomn31rqNqlzYTxXED/pkjYMDXO048zZO5tVBIoBQCgFAKAUAoBQCgFAKAUAoBQCgFAKAUAoBQCgFAKAUAoBQCgFAKAUAoBQCgFAKAUAoBQCgFAKAUAoBQCgFAKAUAoBQCgFAKAUAoBQCgFAKA0tT1G00uyku9QuEt7dBlnc4H2+T8d6lK4bOO9WfipPqMr2PT8hs7cnaZ8ZuJD7Iv8H3PPwK1jC28jGVT5Sk3Fzb2AFxduCkj/VLIxLMeeSxOWb9/vV0nN4xKN2M761GbCR7G3kkcriM7cAsf0nnuPP2o42eMnZDIrPT3RtxLLa3t6252LNOk3DM2eNqjsMeSf5V2T1kLOMftYzjSfUdCtNBeaIjdGmTkFBwpHbArn8dGuAvOhrK61AXl08lzI2BILl8pjHhR3+x4q0NU0seQdJSeRJQabp2nyG3sNOEUSx7pPyyCMBc8BjnJJI7Vi5Tnxze/a5ayXDFFot3WUKxQglQQCuCB7YrPIueLW4inuXjtiGSFishUj9WO3zS9yptagyxW+4uUbgjHc+SMeaiTLGhBq8GN1yw5/QMAA+5PtVVMNom4HVk3Muw4ztI5xVrghtX1GDc0aSghfpZUBLMD4AqkpkNlX1u6eOR7eyUtemQGIo+OOMK3PbxmqZbmcpPylms762vp/wApP6cNyFDmJmGR8D5rS/lkaKVySEJQnPPPBHkfIq1xY/JWUo239Y7gjIBqciCPkVJwUuFBYAncikAcd1JqLixWtU6cnf8AtrW5EihchJAA+PABxj+dUcSjiyLt3RbeQnsgIYHIHHfPtVUyyexG2WuwyXUUEMsM6XO82rKd6S4H1L/wuPbyOQa6JUakIOUl09Sfb3+hRTUmQk6jSdaZ45zHYXILSAnMcT5xuB/hHgj969Kk3WprJcX6mDSi/YmLDVdS0C7N5p128LyYClTujmOON6jhu3fuR5qkqanwyLJtcUTq3RP4oWGtPHZayg03Uy2wBifSkb2Vj+k/B/YmuKrppQ3jujohWT4XzOj1zGwoBQCgFAKAUAoBQCgFAKAUAoBQCgFAKAUAoBQCgFAKAUAoBQCgFAKAUAoBQCgFAKAUAoBQCgFAKAUAoBQCgFAKAUAoBQCgFAKAUAoBQCgKH+JX4laP0PbGOdhdas65iso2AYD+85/gX5PJ8A1eEHMpOagfNXUfXerdV6kk2qXUiryyRQoVSNfZP7o92OWPvXT4bgso2ftf+Xfsc0qjZFW1xNLIPQjMat5HG0E9yfc/+9YVGrvJ/wA/wjO5Z7fRpp1/MPAJAR6MYnkOAuQSfj9hk1SM524S9iwafZ3KHfdtuUqQpgIIwOO5/wAhVUiyuWrSreApCqoQWAbaSCcZOcn2zV0aItMVqFA5wPBPf9qsWNa9jZi0Xq+j3/tAO3GeT4/lVWyWViKW9CJDZZ/K7skgEFuee/J/esZTnLikVv8AKZr7XJre2IdHhVm2q7DJY84HfgeSf2FQ54kOZFaV1F+USRY5Y9kkhbAGSx7lvt4qrqFYzN6DqI3spVg8W3ILuDgfb/aozciyqImNOVNSv4bcJ6kWA1xIOyL3UH5OP5VZcTJvdkvqvVFpF/3fTJI7i+yV2jICd+/HfjtVpVV5eZLmipzQy+mJrqaGK4lYsIbnGRxzznvWW/UUbIJLoLqnrTyBZ4OYmdiI5ARwQR3PPbtUJ7mOW5lvryK/uLa4GIpxgvOCUf4AGOf3/wAqs6qLXvxEla9Z3sMzxXVxby2y/SJGjKOBjjgcE1KrInxWStnrtlK8m+WVrjj05BnDn29sfbmrqaLKoTFpqS3PpmVg45GwnBBGe48jjvVs/mNFLI2ZZo5vriI2kfUPPzke9WzT6Qyn9Y6lbaav5goj3e0kxphiy45O3z74rSnp6lZ8C+72RnKpgcVnmtLPWFm0W5eRvUE2Am1Iz3CjB5I55H2r36UalSljqFba319zjbSfCXbVNGj1axtNW0aW2huSDPLZy52SkjkBs4Gee/bNebT1S083Rq3dtr+x0OGaziSujRvJpEUa2vo7U2CJnDGE9wpYdxW0mpPKLv8AuQuRGjTkvZpGlQkqSsiqcFh7r7/6farN2ItkXPo7rvUem7dI9TaXU9FU7S4+qeAfbyB7H9j4rlq0FN8OzNYVHHq5HatK1Kz1axivdOuI7m2lGVkjOQf/AN/FcEotOzOlNPkb1QSKAUAoBQCgFAKAUAoBQCgFAKAUAoBQCgFAKAUAoBQCgFAKAUAoBQCgFAKAUAoBQCgFAKAUAoBQCgFAKAUAoBQCgFAKAUAoBQCgFAcf/GD8Vm6fin0npRFvNc/Q8uN0dqfY+Gf/AIew8+xvTwb43ZGc525cz5xltJ729e41S4lvb+Z/VmIJYu3y3k/J48DirPU+WkrL17nM18xP6fo13Ku6QBIiwJTOT92/2rmtkFFkvZ2lvayboELyICdi4Zy2eCT4H+VTdRJSMctzftfNPco6xCPj6C/pgd9qk98+T2qHJ3KtsseiwzzMps4rmaSTBjebAKjsSqg8KP7xPwKlMukW3S4bKwmlinuHu7yNgGC5ypI8jso/wAq2SRpFJElbaqs949ujI0iPtIBzs/5vbjmpz3LZG9elDp800pLxR4YlCRvA78+3PiknsSyuapdDaM2stuWAkEQ4CxZwZAe+f+Hg1jKRRsr/AF5AbS0tksJ5XhYgNBM2GJZQQwH28eKzqOyMqnD0lR0ySWCdjNbEtEwVw2DzjIUD3rO6Mk3Et+ny3OpXUNqkANwx+hOQI8DJZx5IFWV2aqTZabm8seltJgtlnSL8wGeaePBaRgfqKj+Yz2BrRywWJdyUEVGTUkWG4jErRQzAsEjbLnPYufJ5rnzZnkjzb3Vz6/qPbemmwKDK3PbHA5+9E309hkSD6PZXxV0hMxxgyZwQffPmrNwT5k4XNmw0GRg8ENuVjH0+rMQnHgkZyT9qvGIUTPb9K2CSSyXDzXq8Ap2QfBHcj7mpSSJ8NG5/Vo3N6dtKiRqRGBiNIee+ew+9LonE1rtpbGNLlELRy4AfcCD7geSP/ekp2G8TW1vWxa9P3Nw6yI6gLGNv6skYGfPtXRoXnqYQEpcGRzvVNeivLWYX9v6e2VWikTh1B7gmvp40mnwnM5ZFKurc2N+klreI+WLK6HDqPsfOPaulO64kZWxZ0To3XLC80h0lhKS2wKy7SSNp7MB5znkCvI12idSeUert/hnTSqKxYplTSLZry6fbjHqXMhJQw5/ujsRnGe4rh0s5xn4M/t9TRrFZGTUra2u7b89akSQugMcsb70QHuWx3HzXdFtPGRDXmNSGO5ILW1yk7AAsixhQwz2Jx/nz80dvMiLGPp3qK+6a1eebQ1O1WDXWnvkJMMZJXjhh2yOPvValJTXF+IjJwex3vpLqbTuqtKW90yXIH0yRHh4m8qw/17GvNqU3TeMjrhNTXCT1ULCgFAKAUAoBQCgFAKAUAoBQCgFAKAUAoBQCgFAKAUAoBQCgFAKAUAoBQCgFAKAUAoBQCgFAKAUAoBQCgFAKAUAoBQCgFAKAUBxn8XfxONlNcdPdMz4vlBW9vUPFrx+hD/8AU+f4fv2rKWJSUjjulaO9+DsJjgBKtKckt5OPc89zVIxczK1yzwaJZ2ce6Nd7gAkbuSPk+eKu1CPCTie7i0lf0o4YDCz5xGmTtX+8x/8A3x96xqTcXwoY3LBY6cINNR738pBKygO8Ccn+6MkHJ+TWj2XEWUdjDO0EttPvltZoUYIUbgs/faSB9QzjgYqsZqXSysjx635SF4fWuJriYBVihUiJOOwJwR96xepguG9xi0bugXV4LOf07QQeoCIpSRgNngkfxY+amnVugrm7odo+hwSQbTe3UkoUrCAQ0jZJLHuffHYVaDxvvdhLE3+txcpowjRonkY71if6AcY8/cduBVqr2xFS9jn0OqTSP69/HLLcRnBdwSMA/TgeTnx+9ceTv7mWfzE3pmk6nq9w73ts9pFgFWugWeQE98DsPYHtWkabbykSk2SGtaBHpFsIbEei0jbpZMAPIoHO04+n5960kseEShbpLD0HoNxaQzXUpdRcIqxJIuGQZJycjINXpx8xenBxOa/iAs8PUV3BNbRosYMQKBsiME42k9yc5zWNR74nNV6iLs2tIW2hBPhhhFJZiR2wP9ax2ITRZtD6Z1LqKOeW7mNlaRMF2xkF355BPgf9Crq8jSFJz6i3aTZxWdqIrQbY03AlR6gUg4/V5H2qqR0xjiuEloAXm+hUdWAJZu3tkjx7ZNWuy6sYZLmASMrMioTuUxdifn/rNTl8xS6InV7yyOn3kPqiacNudHBJJ78gnBHj4rKTVmVlJWI2217TRbNOtvcukgKyu4XGPdTz2xjiodRQeMufuQprqsRHUF+mp2D2NhsWJnEsjDIBTGAM+DnA5rr0Wrp6ap4s03ttYpOWaxic3vul7vUoLx7PMM8DhVgkGBKp5H1dsivo18Z00HCMnkmt2u3257nN4bkVq/0i6s7OK/yggLlWJbJhlB/Qwx34yD2Nd1DW061R0Y9SV/8A2j8y/R90ymLtkZNAv2g1OK4uGMDOSVn24TPsw8j/ACroqRyWMRF7nS7HXrz82BqUUUyYCmNmLxzx+cZ4zg/f715tbTQqrh2a5PumdEZuJ76VbTNJa7/KK7KJTJBDzko3dSAeDg4wRg4zxSpnNLLn3+ohZE5KqCQtYyF0uV/tIkIJHIwSPH3FZf8At2NDxYaHc3gZ522ZGCwJ4Gewz27VEppEKJH3EeudK9QtrXSxEgjXdcwBsJKvfaV8/tz5HNRwVYYTI3g8ondugusdO6z0Vb7TiyTJhLi2f9cL4zgj29j2P868+rSdJ4yOqE1NForIuKAUAoBQCgFAKAUAoBQCgFAKAUAoBQCgFAKAUAoBQCgFAKAUAoBQCgFAKAUAoBQCgFAKAUAoBQCgFAKAUAoBQCgFAKAUBx78afxGl0pm6b6al/8AjUqA3NynP5ONuwH/APIw7ew59qhu31KSl2OM6dpsVvbLDJ9cz5OTkgnuT8/c96yk0USJe3Z3VER3KjCqOwHziuadZvhuWUSSt7qW3xBEobcBt+nJJzwxqI1nHhiWsSdtbMtyJbqc3Rbk5IC7uM7V8Ae1XlVV/X+dgoM89Q38+xLHT/rupckk/piXyWPv8VhUqKXU9kRO/THmz80eH+rbOKEOJJFBxKVAK5OSFHgZ89zXM9VPfHYvCjZG7FErSeoeXUEBjk4HwPf5rmdVmnhomuntLS5uGaRsWkQxKXOMnwK6NJF1J5S2iiJRsWRtWtIpFSyjEhXK/SQqnxw2OePA713f1dLPGL2IxZEa8YL2aGVvTjYgAOyncq+xHbHfgjmuWpqPEnjFXKygvMRmi2+n2t/bJKxnnDepASoVN23AyewI7gHuaU6u+Ud7fz+epkoqLxkXq2vFilSGRcpyqydse4NejmkuEunvxGW7tkuCVEe9XwGLY7Zz/pVtmRJEhcSi2QPI8UQHIMhwAPk1faJLZT+v9PsdVs3QXKfmdhbZGQSxGMAmsqk1DiMqkUzmmm2k8E8cE9qkUgb6kzg8Hjnzj+XvXM5JcRzKLTxsW3p7UtL/AK+0yzOoFbx7pp5rZk+lVMZCtkcYJwRiu2jRSozrS78K+vsbQmrpX7lgvi9tC8cBMl8qhG2ADY2cg4x25x2rilt9TVuyMOkQ29xqMqSSEsgVJDGc/qzyftg5pGzZVcz1r2haVFCggT0JJcqCAwBz2YkZwPtzWk6ECJJFIuNElQwkTfmbeQhVdMgZ7Ebs8DPHPc1yukzJxPUGmmwuo2sI3WSPIVEQFUGORg5APfkVlUlVg8r/AHLKK8pg0+3g02J/y1qZrhmEilCSyDJyD2GMe2a0jxw4uZVJQ6TT1yxu7Ys6wytA2fTZgAM43EjHcA8Z7HzV8Wu2xWSZpwR298LnSb+G3dp03hVbKNNgYGcZ5/67V3aCam8L4y5xl3T7/Z+ncjq4ZFFvNNXS7kW2fW02ckqhYNLCAcMGHkA/xf619NotZPUpxqrGpHaXyt+3+DJq30JGHTL7Q2jBkc6TOoYSopkiUdwSP4R9uK6HNT/9iyi4/Qst9oL3MMGo2uxtsYW5jtmDB1xw4HkfB+1c6qW4ZfY0x8x+6XpsBnt766topbgTJEzS7oXBcHaFKHAwR5GKicn0xJSOlW7pLGGTIIypWQYJIOCMe/HfyK4WjY0NTWJY1RVAB5C4IyPI+DSJDObyX0nRnUNr1F0tcn8uzGK5hckoTnJjcdwD89jyK6sfFhhPmY3weUT6X6Q6kseqNEh1HT2+luJI2I3RP5U/7+RzXk1Kbg8ZHbCSmrk7VCwoBQCgFAKAUAoBQCgFAKAUAoBQCgFAKAUAoBQCgFAKAUAoBQCgFAKAUAoBQCgFAKAUAoBQCgFAKAUAoBQCgFAKAUBzr8Y/xATovQxDYGOXqC+Bjs4W5CD+KVx/dXP7nA98PcrKWKPmy1YWrJPfXEkl5dylmeQ7pZ5XP1E+5PcnsBxWeM53lH039kZ/+xYraaORhaxCM3GSSFkBeT348CuObeHCn9TRcyXja1sYk2kXVzyrBTiNeP058n3x9qOMKfVvIstzIjyzEyyLyxySBgFsdh7e2KxnNz4pF1HE2rdhHkAccgZ5wccnFY5Yl8T8XG8FBggAfcfNcxZRMyqG5cBgO+c1LfylsTaVwdoPg5A+fesGiHE2zNKLSKBZCIlO5UXAwfc+5+9T402sewUUeGeVIf1DvkAnGTnjmiJasSNnMyJGl9Jtj3FVSVgWkJycE/bjHfFS5b8Ku/RGT/1bImNHtTJZTRzK728rbhG0QjAXg4xngAj7mvSoUZzalPa35mF1ZxLEioluZ7lgAPqT4PfPbv8Aeu+TglxCKZgv9UFodzvHhnBJkyMk4AwfPbxVJ1lDiiPuVjUNfsLq8ubCz1O8nLSEvbLhk7jhGx298HvVKlROHCY5pzxuYbqbTRc+nevNDeKhmiLARqpzsGWwR38fHJrKKtDOXK9vvYvPC/uVvXoNXkLw6Zq1jcvOPTady3rouM4KYxj5BA7Z4pBaWlx1m2k+ld/v/GYSVSXDF3/U86fYjRI5njSN7y5UeovMhbnkFz3Hnx8VWesqV3xclsl2S9l2JdPw+rmy2afKLgqjoJpZgVIVskMBwVbyB/jV1T2LKWRYYIFURKGRJp1EZKggb8dj/Lv2NZXc5nVGnsTCNFcWEUJLwvu2gk45z2PuK6I18ko8mHS2MU3Ttk88rGP6CuWjx9LHwfatsFIycEeIenUSW3OxBDGxkKHPfHH7c9q5Y0nPhkXwsbX9Q2LOZRGFf4GB+wrrp0VBYlXFSA6ds8l41KMylTuGQVxyPtUypphQRyS+6Nv+n9ba70u3mmi9ctFNCyh0Q8EZPY8nvWHhNO/ucjpuDyiUm/uoIeshAlqNqkwTJKQEWZv0lj4DjAJxjdX09WLpweogr8svVx9V7x//AFM2+MuWlXumLLb2N4BY3E/6bSbvG3OUA+47fv2qJRm+KO5tFohbrUYulYm1jTLiSG3jm23WnuARGpOCyjuBk4x2zxWij4zwl6cyt8OKJt2sM9zd6l1BbXENvb6hCsUcUgaMYDAlx88fzqjaSUJdi1vMYNe6rubG7ubu3kkW2luUiVdgYHbGcBBnnJO5j4AGOTUwoKSxlzsRKdiY6a1+6uzHY6mlu87fUs0RBjmTAOQP3H2rGrSS4oloy+Yrv4maMls8t2sZ/Kz4F2qdj7MR4IPmtNPPLh79itSJW/w46zuuhupFbc02nzELPGeN6+D9x3B/bsavqKCrQ9ylOeDPrvTr231GxhvLKVZraZA8bryGBrxWrOzO9O5tVBIoBQCgFAKAUAoBQCgFAKAUAoBQCgFAKAUAoBQCgFAKAUAoBQCgFAKAUAoBQCgFAKAUAoBQCgFAKAUAoBQCgFARHVev2PS/T19rOrS+nZ2kZdyOSx7BVHlicAD3NSlchs+Ndf6lutX1u96n6hG67ncJFbKf/BjGTHEn2zkn3JNSoOvLCHIxcrcTKzZ6q9zqkk90huLq4/sYlAyIgxwSox3A7V6U9Mo08YbJbv8A1W9fr3MVPfKR0/QtJtNE0YLZAs8/1GaQD1HPHJ9h8V4Gp1VStPOf0t6fz1OqnBRXCeNQ1ew0xz+cuAsi4zGo3P2448fvVNNoqtfoW3r2NZVadN8RIdO6wms6UtzbRzQoHK4kAG4g8lSO/Ht5qut089LU8KTT77fzY0ozVZZRRKQqzPtUEkjn3rgl/qN1E2vR2j6yQfAA7mqk4n6HXdtTuR96zZZRNmNeAzHnzWTDRsIduCCQM9/c1SxXA2raNpGLoucAEFuQD71pGL8ofyknJZabbx2lrcuk15JIHWGQ4UOOTg+4GTXRCjZ5bt99uRzTipcJOST3IijMTG43PhJdoLEZzkr2A8V3UqzaW9zJxt1EdqF1dxsqkyIhH9q6MFLqT+kHHB8VpOThxSNoQUuEqulYN1e3EcIdJpAZZfzJYq442qhH0jaM8cE1yVYtwhGT3jy4e3O+Xc6lDnKNrP8AlrFttoPVsba3jW3uEklIjUL/AGsZ8lTxtHz2JqVm4Y3vf8TjnCCfI1dX0sFtkwE1uMAOcgZ8rn35rnrU50undESjCfUjQh0qCO8M5A3gjbgZ8Y5/auOdSdsSYaZZ5Hm90GXVdQillm9OxjXc8XbBI4Ix3OPB7Hmu3S4QhlJ7mFejOpU4eRbLG2ht4YrfcIoCAod2BPA5OffHFdE6rbx5RNadDFGWS5QTyJI2wrhgUIIHsQftWGai3kdKjsa1s0kN6zhHzcMWMruSEIAChV8DAzx5qalZuCjLte2wcUrk9ZyESfmnmYtJhGjc4QsBkEDwTXTRrrBTvu/5+Zy48RMLKm8soO1u57jPtXTt1RJseLiaUFGiQFM/UMgH9vetY1CkkeLLUIr4MyOAmSoJBByO4+f2qITzfuL3MnoAMRnKnsD2x8VtYixyT8W+i4NcjW7hlTTri3B9SdoywkTIwpA7jIB5r19HqHS4eaOetTyOadVWR6nsYhBdlr2NltZI7dGfbJHkrIg/XkgnI8eOKwqfEX8Pq+FOOUWsk+Ts+z7OxhJZmroqNZxXUd839ZpayRCa4gk9RmRxnnPcjPKHt2713Uayr01VinHK+zVuX7ej7iKt7nQNH6cFq6XNlezPakFzAVyNxbkjJ+n24/esp1b8MlubKJksukLa/wBWRpI8WdqrxiAZMW9juZl+TnmolXcV7slQuyd1no7TrrTlitYo7S6hYSW8sYxhh2De4OcGsIV5p8W6LOCsQrQXNzozQatFEl2sZjlEh3Iy8jJOOR2rS6jPKPIr24jg+qQ+hezaW7uHsiVUSAAkfxL3OSO4PkV6S3WXqcz+U67+Bn4gNpGr2/TmsSYsb1tttKxyIp/Az4V//wAv+avN1enus4nRRqWeLPpOvMOsUAoBQCgFAKAUAoBQCgFAKAUAoBQCgFAKAUAoBQCgFAKAUAoBQCgFAKAUAoBQCgFAKAUAoBQCgFAKAUAoBQCgPk/+kP1y/UnVa9PaU2/TdImCyEH6Z7z2I8rGM/vn4rWEUllLl+3+/IynL0KJDoE+pSW0U7vPsUpGeBnJzlvc/NZw1eDfhKzlb+fQo6bl1Edp2i3tn1M+nRyR+vAA0zxuACuMkZ8e2BXq6mov6dz9eRiou+Jfb3UotP0Sa52SbIkCxFSCWdhhVz4IPx4r5ynpnqNSoR5S3+y5nUquEGV78NdAi1l7zU9TjNytvKFPqfUsjFSSWHnBwa9z4pqp6dKlR4brt2XsU0lJTvOe51K202Gx0lpJUSGytImkYIOEjALEAea+ewnWqespP8z0coUl7I570tfaj1p1AzyW8ydPwkyNBHhER8f2as3djkZOP8BXtavT0fhun4GvFe1+b97LscVOdTU1OLpR1X8rtDhjiQKMBhgbccgexxXzD549z1FLymoYQqnaCSeQQBnNUsaJGLVPzVnpsc8EbzzySrbpCBtJcjgkn9K+c1tQ0qqPjnjFK7fsvRd36Ixq1FSWVrs9xabq8cgikurKS49MFlEbhFYnsDk59s4+a0ktNJ8Kkl63V/wITq2ylb8y7aTaXNnYs81r+ZeNDII7fLbyOQFB7nx8mrwpU51FGF8fV/q7djCc3bKXMkV02y1YBLq3QouJXBGXByCo+G+1Wp03KbxdvW3f/kq+RYLe2S2jeV02cAYB3HHjPxXUqcKS5EXcuEputtaTakYLazuncnd6sZBVD7AeP371zOSi+FbGqpOPERUmnDTgz2f0JKButmUAqAMDcM9+eyiqVYX4ots3pTtwyViR0hdRIX8raerghWAUEA85B54+xxSFOa4oopPCb4mSC3x+gPF+cDP6spRiUQcgKVIyD45qZyS4ZK5TwW1kiHu7gxSuot3gUkmNZDk7fBzjmuCVKFzeFJ24j1DdvLaFZIt7A5UEEAHPk+1MVFYmng7khDLcFZ2lMW4DCgcknuBitF/qIdNbG3p80U7IspHqAYVUQA5zkHP396lK7M6kHHpN+YpHdNI+HfGQnOFYccD3qKjUHlLcys7GmPqmKSylkblgD++K8+O8/wBSDOqKVIjcvEpB35x9s88f61052vjyIlubU+rGCOONkkdXG3MZ/T4JP93v5ru02ou8Zcjmq8JB21zcWmr2npuBE5KscgLnByzKT35zkcGtotQn3vL+WMLu5dNKvINRskvbd96shBK8DOcEY969N0nB4yNIu/EVvq2aTkW/pSCHDzo+QxiOclfc/BrqpL5ikzlfV9vqK6TM3TGBdRus5CRAyYBJDMe44O0bfjkVd0NPOpnqleLVr35fT9Wznne3CcjGt3+grb3rLFdQXe9pERihjk3EuGA7cnz3r3PChNYelvfbsYxk0TWm9cax/wBk721urlzcTzpPbhV59HJJAbyPFZS08PEUol1UdjpX4FdUSarHeWV5vPJlhL9wc/Uua4tdRwtKJtRnlwnUp5UUHeMA+fFeekbHHfxB1zVdE11lSX1NPvX2wyNghGxhozxwPmvRoU4Th7owqSaZx/qSQzapNcg/2qbWbGAcfPyOK7oKyxOeXMj1uWkgaBzlSdykcFTnIIPiolEJn15+BfXB6x6VEV/Ju1nTsQXWe8gx9Ev/AJgOfkGvB1VHwp7cmd9Gea9zpVc5qKAUAoBQCgFAKAUAoBQCgFAKAUAoBQCgFAKAUAoBQCgFAKAUAoBQCgFAKAUAoBQCgFAKAUAoBQCgFAKAUBzv8cuuP+w/QtzdWrD+t7w/lLBe59Rh+v7KMt98DzV6cc2RJ2R8h9HW5cvLIxZl+gFzzknLsfc/NTrXilCP1/wZUuJ5F4gYjBR/qP0gjj/2rzW7HRYk0i5d9qNPIAGJwSwGByccnHvUzk5LiexRwVnKJXfxJZbXRYrdTGPWuRKUVsFQFPJX2zxn3rt+BJzquW9oq34mOpWKLD+EOmPZaW81zBLH+bAlYy5CuvITAz2xz7nPtVvilbxauMXeMdvv3N9NDCnl3ZfdQmEgaD0pFiVyitwdwwPqA9s8YPtXk6iStjHkdMItLIyW2yz01YrWBEijOFZCFwT5C1SU21lLd+pvGCXCRMbNJfbHLuGBBDEnNc8+RrPkS1rZRFnd2cSAAlh4HYZ9qypzcjF1fKWGDSVktYYbiJzOWGZc5CjB5z7V1+HyjJO5l4tnw8iWstG2Txu7CXH1Fi2TnAAA+OK6o6b5zOVXLhJi5U4jgVinqHP0HHA/yrao+UPUzRltobbToW9JQiFizHPcnuavFKIcnIiOpOobGwiiha82SXSsRtUuwXGOQBwP8zWVaVlztc1pJy4rXsc71NUS5tobXU5blwQweONlRADwWJ7bc/yrh40+a+x2p3XQbtnczWMMDX0ouUiJ9C6iGTA+SCWBxuBz38VrGT+tjN2k8bWPETT6c8ssUkUgxuEySFDIM5wQO5+DUJtdLNWk+pEjFrcLIt3JcIk8j7pBGhUlR2Jb+I559xRzcl6Mjw0nyujxb3DXRmdJPqJL5nOSx84Pgn54rNwU3xPc0u4LhWx6tmnuJfTmSXaON45488ePvWU4pGkZEmHECBYlkBfAZiAN3gEms3IgzySxW8QjiY7/AP5jIeTRyfqQ7eY8RybkCxrICMZOc5GcgH96wlNtYnHUaPa3agGIKHdUG6Jxwoye3xWPi4LkZRknwkg80bQxKFjaZlBCbQCpx+kN5H3q85+LBRir/bp+/f7kOWJUtZN28U8N3dpbWTsfTMgOWIPAwB++K7qVBQal3PPqTcrxk9isS38OjvcXmoS3FssUg9a5VASwIwuxT5JOdvYjvXo6WE56inCCylf9ObftbuYJ48UjFYa9rNsSOn72N9P0myM96kiYBlZyQw59tvHIGcCvqp0qb61vJ7EqT8vY8ax+JsR01biFxDLJ9DK5BeGY8sY1IwcgkHdxmkNHvYiVYhtO/EGwF5pxskvbxUiMVzdNbbZYVDZDOobDDk5IPA7e1TV0TqwlGVt+SI8VH7+NOjW0F/p+pWX5W6XWUdbgQnIdkI5Q4747k+fFc3wao3ScJPpe3t7CtHFqUe5yy0V9OVfpeeyuN/pOucoc4KsPBzxj35r2Hv8AUz5HR+horvp6z/rOSKRGcFoIxgmZcA5QDuy4PHnxXFXaqvA1htxHWYestOv7BpZJ4raaNR6qSnG5GO1WUeRuIGR54Nee9POLOjNM5v8AizE76LHcJJhLiVd31ZEMi5XcPYAjmuzSvjxMavI5FZXTwyubtBIVYpIjcls5DA+/fNd8o36TBM01GxymQ2DgNnjHg5qGQXH8Neq5OjOsLLWFJNnkwXyL/HCxG448leGH2x5rj1NLxYOPc1pzwdz7agmjnhjmhdXikUMrKchgeQa8E9Ay0AoBQCgFAKAUAoBQCgFAKAUAoBQCgFAKAUAoBQCgFAKAUAoBQCgFAKAUAoBQCgFAKAUAoBQCgFAKAUAoD4n/AKRfVr9UfiC6W827TNKLWtoFOQzqR6svty4258hK7NNHmYVWVLo6K5bUovy80eZcmUY3PGgPJ9gWPHyKnWOnGnxp7cvdv/BWknfhOm28BY7s7CeWJHYZya+ffPiO2x5EqwG4n9EpDEC0cUYJLADPA85rer/eajfeX5f8ELgg9tkcqu7i96j1pHkUz3l3IsUcScYBOFRfYf8AvX1lGlT0dLCO0Y7/AO55jbqz92fQCIbRhbrI8xjAUg5PYDz57Yz5r4uUt2e9A2Eld24+kYwQe32rCTcTdJGREWbZ6ZLEDB9sf6e1ZzngUzM8S+kTIjIWUHcgxkjHA+9czbnw2MpSuSulWk5ja4ER3zcF2GGQdyB/dPz/ACruiq8FhSht+v8Agwkl6k0rfl/rvpUVX+gRSEkgEAYJzz+9d8ITtlIzLFpljaWNv6djbx2yuxkKxrjLHuSK6pTb6tyqjibRYnLLgseMkAAD4+Kzc35SyiQWvQzXMIRDcc/UQrAoD2w3uK4q9SpbgRvTgisRadc72luI/XSMFVeMkMvPCBR2x85zWV00dFNJcJ+3GmywpJLIHjDMCRJy7d+SPfA7USxNFI/GeKVoTtluJI1P0egSAcd+e3iqpIl3FnA80MryQbcAjcnJIGDkD2+4qZShLpIi3c9WjWwlQABo2BGZAM9u/bjPtWTeJpbIzW0MVwjERxoDhShbHHY7R7+eai5Zo3IPVs7cR2jRocgSykZKDwBnuf8AAVSTcVw7siXF0kdcySCY7LjcwHJkyc/JH+1Z3duIzkn5j3GS6/2TF3XBY7cD+X+9Uu+qRjJPzEjY2dzdv6cW/aeXcYGwe4+ays5PEwqfLElZ00zSZHuL6++mXJhilIGMLkhRjntnmumho3qX/ZpuS/T6mDah1M5PoPVcup9dPqWpW84tIInIS3AAjKr9K9zk89hznnxX2df4X4Gh/pNM1eT3b735v2/bkcEK+dXOZIaj1q6xW0929rHcS3ccKWS2wcGMkD6mcg7uc54OO4rP/smnhTcY3dk3lful6L9A6783ryLb1f8Ah3bdRIjOsgnWUsqb8oSRtO/HJ4A5GCK834ZqaumeeG8kk7+i9DarRTKrq2naV+HOiWun6lciCTUzK9xO3CqiIcRDgnac4A969+E56uecV0mLSprGXc+eurNRh1fVXlsrc21hEiQ2sBOTGiqACx8seSa9qlBwhxbs5JyyZu9EaVNqE8zQTC3W22tLLgnMecMoHnI8HjGc1wfFNYtJTUpLLK6S9+z+iEFdncdQ1HUdZ6Sln0uWwXULG7/MSwSBQBFtAyCQAOBnA4I88V8x8J1C8bwp34l+fY7N5U8o22ZxTree4g1pri5t1t01CISyRkgKZMkNkjgNkdx8V9fRSwxj2MJcyS1J7n/stEmnSEPDsuFETHKsp7ZJzjad3HOfis428TiJfIhZDcCWCaS9jREIuo2c5XecEk8fpyO3+Ga029PYgm9S1ma96d/q/aRb2HpqhcFGkErnczLntliMeBjzWUaajPL1/Ys3ksSm3qNFdkMeSNpI9+2f8K3XIzPcwZhHMEwCoViBgEj6f9KoD1GwbdxlW8HvWckD6l/o09W/1x0nJoV3KXvdIwsZY5LW7Z2f+nBX9hXi62lhPL1O6hPJWOy1xm4oBQCgFAKAUAoBQCgFAKAUAoBQCgFAKAUAoBQCgFAKAUAoBQCgFAKAUAoBQCgFAKAUAoBQCgFAKAUBTfxZ6lbpXobUL+Bgt7IBbWuf/rOcKf25b9qBnxD1DZvbXELBHaBYlRXPILEk4+T5+9d2kkrY335nNV5l26K0tNNtHaYE3khBlP8Ac4yFH2z/ADrztXqPGnl5Vy/z9zqo0sF7lpLD0XXuw+kjtk4zx/OuCfY1uYsBlVANzsMKBx9XsTR8vYso5LEidA6dtdI1ZNTtmlW4iy0YlYcF8jKrgE7cnzXdqfiFetTdGVrbbrnsYUdG1PIuNpJuuleT1CxypLYyw9wc8+/+FeTONkd2NuklTG39ogTcQe+eDWDm11F0/mNmC3mt4WAjJVjkSLztGOSfmplDMrJm3pq2NvLFLOm+dmwhVQSOe5Pt8DmunT13nh+i5HLOBO3mt3kqLDa2qQsSfUaMhyozx44889/YV7CW3EYMm7LSLV5LadokDRjcVwcM/wDeIPn4rCdJOal6djSM3FYk4xEaPL32jNWbtxBLylcutWm3vHAQEBwMjJA+K86dd+U7I0l5jxHdPICZS5GMk5AT7sfFZKc5vHcs4qJ5gukjbMbCRicF1PCnHYHz9xW9PSvqkZTrI8R2T3k2UUhd31HJHPnNS9PD1LKs7cjzfRT2MrpK8aFeYwu4j45PANbRoU78jKVWdiIljka9XYwh34JGzyOSDzWr00JQ4kZePOPSyRhtZAzo9rHPG4DbnBIJz754/avPnp8Hw8jeGrfmMLiOKPMEJRySpBwcHP8AhXNPheJ20qiqGv6zOoSU8ISzBcf2hyAA3+eKyyZepwtY8jxDEkhLuOWNRKRlKaJTS7F2uVWOLfGVOWHZT7saiMHNM46s+Mtuk6S9umHP1Z+o+4zW8dBUvxP/AIMVJG5dabBdSRtcwRyBORuUHHv/ALYr0KP9RRd4Oyt+JWSi+ZRz0lAdP1caxPHb2s7s0DWLGGWOMc7mbH6vGO2Peu+PxWrWdP8Ap1aXpLe7/wD5/Mw8BRTz5exq9C/h/p9jrlzqP5aQ2hRTbRXM3remSDuce7MfPcdhXpVtXUdNQk1f2Vvt9jKnRSeXYu17q2naIFlf0oIJ3EUTeZZMHgDzwO9cFVtU3OXlV/sbZKJwn8dbmTqPQIL649OA2kgZYy4xKM4O3+9+3HfNb/A9RUlqXC3C1z9PQ49Q8lkcm6S6cOtalNHI0iW0SepPKvZVyAMnH0jPnv7V7nxHXf0dNSiryb2X6vY5oxuzrP4fxdP6P1LGen4pWvJLQxxz3JJtZ4/4ypzlgCeTjI58V89qa2prJSrW2dnHzRb9fS69WdNNRT4f9iv/AIsdRapZ2R0N9D/qa1ad9l1AzbbhW5dM4wwJP7Dj3r2Ph+ipU+KLyf22K1ZOKxtY5+2qTJpIlurneZZBCEEYJBUgk5IwMgjnzjB7V6Dgs+Eonkjc0O/E1veadek28RAJMo5Ricbj+xIx2+1UnHdSiWi/Kb2vy6VHZvNBbG4sYZFMZEixmVwMKCMduR+nnuTVIKd/cs7EDpFx6xv3lhile4tZcoBgQ7RkFT/CQwU58/vWs1a31Koi9RSRJh63L+mrN4OSM8j7HNWiVZlsJmklhgJkKynZtUgAk8gfzAqkkSjJLbFELbgkolMTRnuDjIP25x96o2TYtP4T9TnpTr7S9RZitnO/5W7HOPTkIGSP+Ftrfsa5NVSzptF6UsZn27XhnoCgFAKAUAoBQCgFAKAUAoBQCgFAKAUAoBQCgFAKAUAoBQCgFAKAUAoBQCgFAKAUAoBQCgFAKAUAoBQHzh/SP1s3/V2maFE+YNPhNzMB/wDVkyFz9lBP/mqGyGc2iSCT6J443aNg0Ybna2M7h7HmsuXF6/oWUciesYSWJI/Ue3v7msnub3Nx0Yo4ALENkE4BYYNc9R7uREVsakEzxss8fGfpPGRkjz79v2rVo0pk9ZyJtDCMFyDuLDJUffxz7Vnaxsz9t7dHKtGJY8fTICTwMcH4OazncsiT/PJhYkws4+kq4J/ka546dyeUuRm+ZjOrSxAM4wqEY55P2HkV0rSLysz8Q2LSa6v79kUIqsCoaUELEPj5/b7VrpqdGmspO8jCrJ3xL9oUCW0kfqyidzllMaEBeBk9+D9+T34rvzuZJE3OpkUMrYhJDMUJDH4qbKQuJruExBZhIqkEkqhJUA8ZA7VWVLNYkqdiuFrOSR/Q9YkZIMmFDc9yvfFYLQJcUmbf1bPP5XdCgl+qIHcFAI2nH6sfxd/NdMKEIdKMZVZvqPVtbKMxtONi4ZGYcKeTnA5+cGruPylFLEllmFtAjW8wIC5eVjgrz5PODWcqbf1NIzRB3l1cbnSO9d0kzuSSDeGPjn/Wud0akX6mqqwkjFaoiBjMSZAQVlKkFj7Y7Yo41L+xDdORusb2PULW5W6uUt1Qq1mEUpKc/rJPIIyBxx7iok4Qg4SheT3UvT2tysY43eUX9jDeCf1HQiQAnaAwxj5HPb/CuGq5xXEa0sIvI/bTSmltyzAHJKqSeHOOx+eaywusjpdXE2LHR7q5u4IVixBvInc8FRjjFY0dO608eRjVm1bEu9lYRWsIURgkN3PPng17FKhCiuExcnLmb3bxyTWj4enuDxKRGu7FUq4U1kEVTX7eTVjHDALW5sYw5uLaZSRK/AUgkdh9XHmqaD4hp6Ld3Z+q5L/krVg5/Qr3VHWth0+BY2rlIxaCKN48DDMcbgD4XGeAfavfpaWdXil6nNOqocMTiPWnVWqNrsl5cOXu1YpbrKzEWygDDCPsCwOc/NepHSUqlJ0pdMlv7nJOo75Hi4uNQ6rtdUuoIoj/AFfbQq8xm3QR4OGdSQMA5IwQeO2e9Vowp6eMIWcU+1uL78w2539jb6Ti6e/qaygu7u/bSw3q6n6RZfVAbJ3KD+lSFHPPGQOa8jU1tTDXccVxcMfVem/ve5MMLL8yufiPq2o6R15qMVjcH0rB5LW03IuEikjAIxjkMG/Uf2NetoNJSp6dK27td+rX+BNuM2Q+ofiB1HqfTh6e1u6/OWMaoIlnhAliK4xh8A/HPiumOmpwn4sFZiVRtYsgnlP9XS275MbuJhnsrgEZ/lxWzW+RmmbKaIUs4LuS+EZnQO8XO4qCd5P2wPvWfib42NLHk6k9/HFZw26LbQSGcgjO0YIwPYc/cmowtxC5ISFbKxv4D/ZtLDCqYPKljuYfywPf3qnNqRJAzSmWYtMd2cBuf2P+FaWKn7G20MufpyOQeTg5BHzUME1Z6bd6w9zcW6b2iKs5xyAexxWEpKHDIslkat5DteSKWN09RQ4DcHBBBqrDPsz8Feom6m/DnSrqeTfeW6G0uT5Mkf0k/uNrfvXg6iGFRxO+lLKJeqxNBQCgFAKAUAoBQCgFAKAUAoBQCgFAKAUAoBQCgFAKAUAoBQCgFAKAUAoBQCgFAKAUAoBQCgFAKA8SOsaM7sFRQSSewFAfFGoas3UPU+s61ITi9unlQE5xHnagHxtC1m2LGn07IdQnu5Nv0mQhWycbVOM/FTqIYWj7GtKWzl7l001iQVP1YOQa5Uy0on7ealYW+tx2Es+L65QmNMEhTg4z7Zx5q09NOdN1orhjzKKaTUO5+Wp2K6k4IZSARx3558d6ouJI3gSEbiOGQDL7Wwc8l+OM1U2Ru6dHPLI0aOUcgM4Hfbngf6ZrOSGSRjbT7u1E2/ZHEWKq4bJYYzwPbxmmZVpNma0sGS0Zp1JkZwqIe5PsRngf5mtstuEyasWq00e4sngmaBxIifXEMNkHGdx9/wDKuSrTmnlb7IjK/DcsnT08kksy3MWzKq0bhQquOQcc+K7NLWc1jJWOaSxZNPKlpCzMxcEZHueO9dyIZApqsc8UkGXRlIEj+pgn3APmtOTKJ3QiVF3tEN2cqGA78Zz9/v3o2EjPD6sgCNkogwCwwGJ5Bz59sVGxKufsYHqCZ8IAuAGAG4+cH/SliLkrb6TAluuwvt4dTjBYEcVVyLJGq2mog34y4O3OB3/681k7+UMxPaKWLD1V2fSUBwPuw8j5qmeJBsW8aqBliWXt428c/tWNRXBi1azubqFWs0JZTlh2Drxxn/HFZU4ZPGRWpe3CYenbhr5WRIA7khyucBCDjIB7Diq0qeNRwtexdVHOBeolG0YwT5OMZr0UkWPTANxn/ejBr3V5DasolbBbOBXPW1EKL4iUiPl1ATlPRBLAn6R9u/2rx6us8drLhtc0UbEQu8XYuBcvJucAoGBTCg8AeDznPfiuWNS8FGUEku/ff9f0Qa35nIfxy0CG836/pk5mhhZRcQoMqQTyyuv6exyG89ua+2+A/Epqa0VZb24Zd/o0+ftb7nnaukn/AHYnJdZ1k6rePdC2htlZQvpw5AChQoySTnt2PevqIU8Fje5wylcmfw/3TaN1VZpaSX0clrDPPEgBIijmyxwSMjB8cj+dYanhnTle2/6ovS5Mrej61e6fHc29pN6UN0hikkcZKnBzg/3sHHNRqNLTrOE5q8ou6/noVjJorl1NPckvM5lfAB3nLYAwCTnJPjmuqyiTcxwGKfMcgWOTPE7MeB7Ef61D2JPSOgX6uQAcKeRnwO/ahB4uL25mhUzTyuYMhSWJZQe4z7fFRiok3J27gbR9JTTo323M4E18y5AwVBSLP8QGcnHBP2rFPN5fgXe3Cat9eSSBZ2CKzSK2T3Rdu0Ae485qVENmrqawpfuLQbIG+pEySU84J8n/AEqY3txEM8Rxgghsq4OGz2AxwcVDBefwykuf671O1tUE8lzpkyem5wGIAxk+O55rj1KWClLszWnzM/4g2Mf5HRdTgjKI0QhkjOMoykqwb5+knNZ0ZbuJM1ykdB/oq62INa1vQZW+m4jW8hBP8S4RwP2Kfyrk10NlI108ucT6VrzTqFAKAUAoBQCgFAKAUAoBQCgFAKAUAoBQCgFAKAUAoBQCgFAKAUAoBQCgFAKAUAoBQCgFAKAUAoCj/jXrDaJ+GGv3MThJ5IPy0RP9+UiMf/lmoYPkqAJZ6Y23jbGQB7DGaolk8SV8w6OkeGxt4k+kzJuYnwck/wCtaat3qsvQj/bRe9PXEiqDglQM/NefLqNXyKdrUixfi5atcukccZiAdzgY9MgZPyTivbhFy+HTjHd2f6nA5f8A2FkXSQGFcyLgFSmNuSB8/wC9eDCR6SR+2BefTbrbkchS47txwR/ua0kl5TSErdRaraSK10rajiORmw2/gnHjPtVJcsSErzyNiGZ5IjOeIQp/tcZBOD+n37eKxUHJ8RaVkvcj7SGa4ayVCVRpxiNRk9+7HyfitMk2oxK2tcvt3d7UECDcTku54/YGsNVqVBYR3ZzJXJDR29dCJc7lXCZPAHbAq2iq5vi5orNGvqt09yPyli5e5ibcEAwXHYbT7DvXr0qik8TBsrwi9VjsWPcWK4BGMg8kf51uuRRkraM8IEeZUck8YyPvj28YqGiykbPrAyRGCW2lDgsgH0ZIOCQc8c8e9RZ+YXN3TFkubhyyJFDFht+8N6h5yAPBz/Oolw9yU7kppu+BiX+tDhceMe59veqNslG/FHFJIfpAY8A4waWBklsUMi4JGwYGCRx7H3FUcEGj9S2gWMmRUKHkDGMcZOT5qcFEGusLuZY0AWAMGULnnzgmpxSKWN6CCO2lAijAMhyxUAfufesHPjxiaKNj1dXcUBYtKE2gs2RwRUyrJPHuSyodSa20RQLM9vMDkAZ2SHOCPjjnNc1Ws7GMpGzslukikv7kSYTayhcJKScqR8j4714das6r5f5/4OqMfmZEZtZ7pbgTy2zRqSUif/xschR8k+PHeu2mt3C6cbfa/o/b3MHZvLkV+66kLSzm2Hpxqxym3azPnjaMZyM/vURoQaUea+v829DKVd3eJB9Uv+a0T+r5o59PidWlmitgIhK2SS0gxyue4OMZzya6vh2sdHUKrZTlsk5XeK9I+j9/tsitV5Qx5fzucJkYK0jRjCliVGcgDPHPniv023zHnGaGd7HEsEhinMbqzA4JBA4Bz2PzVGr9QTxPekw6dfS3ra5dyW9tHbtLFsUn1Zs/TGWA+kHk5xxVJucbYLe/5epaNn1EJJZWTRPKL4xT+oALYW7ORHj6n3jggEDjuc5HarZO/IvZWNB4Sw3Rujgexwce5HtVrkGPY3GO57ClyDJAwhljlI3FSG28jzkEn7iofED3LNLc72kZFZnZwMADJPOP3NVskW6i56F0rqus6CLxII9jQSS2qyMMyCEEu0Zz3BXBz4INctStCE8f5uaRg5IynpS7u9Dk1C+tvykcbRXTXEmRJHbudvK+VOVYHGc8VXxlGeMXf/JOGxB9Q6G+mG2uLed7uxuBiK5wMMBjgjJwfg1pCpnw8mVlGxqW149tN6sDujjjKMQSpBBBP70lHIhMltImfULS6trmX+xRRIpckjfu5GfknvWNRWeUSy3JL8LNVOhfiT07fs+1Ddi1mJ/uyApn7ZYH9qw1Mc6biXpO00fcNeGd4oBQCgFAKAUAoBQCgFAKAUAoBQCgFAKAUAoBQCgFAKAUAoBQCgFAKAUAoBQCgFAKAUAoBQCgFAcK/pVaiU0Xp3SlPF1etcSDztiQ/wD+zrVZA+fNaYLpF4dxVjHx9sir6df3V9RP/wAbJfpWM/lYS+CREmTjnsBWdd3qT+prT2poudmu6aNl5/tAAP2wa5GtzS+z+hQvxXtnGtx3ruE9TEMKAZJWNQS5P/M2MV9B8MkvDw/H79jzNQt8jf0/rV9UaztG0+R7yWRIZnD4Qk5G5R/e4zg8d/FcVb4VCmpzz2s2l32/Y6aesbtGxbo3tTZROs00F3GgBRl+iXByD8HxivIjyPSJ3T2guNPeKQAEMGQ9woPcZ5/xqW9ivJm6LpbiWztcyGBHCFWYEhRyTjsOQBjxVKk8YcXYi2N5EqWR7p7iOMpKWJD+FOMcDycVxqs59Ksym8libyKW2FQST3DdvjNP6dMYqJK2aToGR178Y5/mKq6E4cMSkrCaze69NnOHUgKSedue3/vXRQm42jP7GE4XJRbaMIk13aRrNu2FiBwM8YOK9eM3biM7GKSIrI5ZCVHBZjkg9gP/ANVqmQ0a8JgiyI+xIZlwAce4Hg81LZCJmBY2hc7GCMDlZhjcOxOc9qonuWsZbRYEwIRtjIDAKMqozwB/KovvxCxuRuYn3ynac4wvAx748VNwbU7vuVkw3uPIHuKhliKubuO9a4tfEY4IOCGPYg+9DNvLhJOxI2IW4KqAc9z7UZaJkurlbe1e4dSCBjI81zVOBOUVuXuQkYF3Nukl2ICNkTZBY/8AEPauKHDxSZHUVDqgyhvUiSOQox2oeADnBOM8njHespzzbjJ29jGatxRPwalcXmmyw3Vq9vcCP6Fc5B4B7f5D3rzrKE+FmubcOJEXpdrZiW6udWlz6kZX8vGCQN3H1HPfj9u9dTqTg4Spdne/0MoRW8p/gaut30Anle2QyOsQSK5YE8gYyox3A8nkmphSe8pvve3+/p7IrUmr8P4lJ1G+m0/T5bp5dt8WEVp9W4qxP1u3vgZPPFev8I0S1epUZq8VvL9l+JyuTisu/Y5stq7lECuQ65jKgnIzwcft2r9AlI5rEnHoN5JMzCJ7m19JXlEa4cRkgAhe+fgDPvWLqr7migz9m0rRUsJ7KfV7zS71GaaWO6tMphV+gKQ24lj4AOPPaqeJUvlZNfX8Syiir61o95o62r6jBGILgborq3kWWKdQ36lYH57HB+K1hUU749iZxaI9mEc/9m/0gggSHjBPII+1WKnUOmtC0286NvvS0641Eh/WlvIgA8LbTiNR3ZOAc44znntXBVqTVRb29jaMVgc31EyW17LBsQL7EAkD74/xrtjusjFkdMHLA98DAx2xUhHd/wAEdBu3s7HULi5kgWzgmltkdMpNFKCHjIbgr5yPtXk62oruMe/7HXRj5iwJoUuo6Xr7yzuyNpv9VS2ToWLKhJiZcn6SuAPOeKxdRRcPre/6lkuZxWxWS80uzsZ2EEshRIkjUgKdwUmT5Jyf9q9GWzcjnNOfR7izv57K5XZLHknPcAE4IPzjipzTWUSMTesYBBFexA7t1sZGC4IU5AAz789qym72+pZETqEz4aQE+sMOp87gAc/4ZqrRB979NaiNX6e0vUVIIu7WKbI7fUoP+tfPyVm0eindEpUEigFAKAUAoBQCgFAKAUAoBQCgFAKAUAoBQCgFAKAUAoBQCgFAKAUAoBQCgFAKAUAoBQCgFAKA+Xf6TV8Ln8R9NtEfIstO3MPZpJD/AKIKpIlHI+pZVXTVjPBlkRSfjPNb6NXq5eiK1eGmXLR2DRMsSYRBgN7n5riOixaLFcsreFHHGOfHFV6nkVkyJ6u6Og6ju4rqTUZbSdIxEoCCRMZJJIzwefH712abX/0yxtdPcwnQ8Qqn4i2K6PaadBocUsFrYN6hkTO8yEcys3vkY+O1dHw3UePqKkqvOSsvp6InU0vDpRx7M89N/iRtkih6msxeQjINzBhJgcdyv6W55zwa3r/CKc+Ki8X6djOnrZrq3Lbp/WHTl7Lstpby2iZCXEkTYLA8AFTyfOOw7VwT+E116P7nRHXU/Ncu3TtpbT2z6jYMZoDvhLbSArgjdgH4PevM1ennTThPnY2VZVFwljs7XciO+QxGAO+OfFc9OOUF2JcywadZJuw6gqBwScEmu2lSXmMpTZ6mtTDIrRyFQp+onJGPj2rGrRxfCyE8jYtI5XKs8u9jnBxnI9j81WlSn5ncNksqBoCkjcHvgY/lXfHlxFGat5YJGWnicpKzDI3YAGOSB5PFUqPwuK5XG5jNoJERLyyill5ZpHwMjPfPvWqqvzEWNiJB6/oGy24UH6yWQDnAHz5qymRYzxwMm55YkXGSMnG0e5Hv/lTIWZ7hMcEXqO+9gCSWIxj3J9qqpXJtYwXF9hJGZ0SIDaSSACcdqtcq2QemyiW4YhSsfpljKxOQM8Ajzk1GRlHdknc6gwiVLc7nB+t+SR8Ae9Yzqfia3N4PLPZiNXAk2hWH93jsD5PyaxqZuGN9y6Px7UGyiSElpwn9m+clRjBIPk8+ayp0VgsVuSyhSmVZZBPbpJbqxiVR3+jkqc+TnPz38VRQ3e/r+JzN/MjzdyRHeBafRCm7ecBY2J4CjuzdskdvNeW4YPn/AJ+/obNr0K5ol0bh545ndYFkDtEiZG7JK7ffvn3xXW4rNY8/5/Ec8JZXy5Efr6i6v9kEXpDYFKKMLGcHvz+/FbSeMPoZSV2Vbq/T3uXFjZp6l9ZR77gA4RQ+Nqk+Wx7e9fVf9OQdKi609oze3rt3+hnWjvj3RIf9iTpmktEcSXDLulvctHHbsMZUt454znJ8Cu6j8QWpblFWSdkvmXqT4VkUq6t7PTo1dp47643Ft8ZYjJPILYyT3OQMgV3qTn7Gdkit6xfHUreL1trJakJGikk7SSc7s88efcc1pGNn9SS2dGy6t1H0jf6HpNta3EunxrNChdVlkj3neTn9XDBQoxz+1clfClUU5dzWPHGxUupdNTSGt7UW91G4Vzm8iMM7jdjDRZO0Agj5HNdNOefF+n+Sko2Jvob8Sb7o1bNdPsoJhBJM8oldsThwMKy9l2kZBH7isK+jVa+Ui8KuBEdf9Qr1N1JNrMNnHYtcAGRIskbsDJz/AKVpQpeFDC9yk5XeRDWLQmSSS7R5mVSVUNtDHHG447fatJX8pVHY+jOuriz0fSOn7iPZaQSiKO5ClhFHIMfUPI3E4zXm1tOm3VjzOiFRpKJ0fX9fituqbLSJxLZCMJHLO6lyw3ARtx5OByT5rip0sqbnzNpS3xKb1R0wNI67nk0y3iRLotPaK670dDj1FJ/hG7OCORW9OtnS4u3P9ikoWnwlN6k0i8Fs+ptAGsBKVtZt3J7sFY+R4BNdFOavj3M5RfUampWkOi9Pi1cO9/dzQzSAKSEXBwo5yCe+PaoUnOeXZENWRonp2e7jju0iItSxicpyEwQM/bkCqyqJcPcYn1X+At5+a/C7R4i257P1LRj/AP43IH/27a8jUL+4zspPhOhViaCgFAKAUAoBQCgFAKAUAoBQCgFAKAUAoBQCgFAKAUAoBQCgFAKAUAoBQCgFAKAUAoBQCgFAKA+OfxyuRc/jBrz5ysawW4HttjBP+LGs5lolB6mjM2nRMAAVkGCTjPBz/lXVoXao/oZ6lcBedIVo7eJSDtZQw4wSMCvPnwnTHkWvT4i5JHBx2qqWRm2fl2zvOixnhRnIrCTuzpopRXEe77SRfSQhGdZ9vbAIdT+pT4xiktlkWhK/VyOAPZINWuLOznjliErRxyg4VgCcEH28fNfbQm3BSkrOx4M0k2kblnDPp12FnAKnjnJU/b3qzakivSda/DLqJ4bgaWIX9C8kAjlllJRHwcKo7DPwO9eN8V02dPxflXL2OrTVLPGXc7HFIkapGzbJm4CY57c8eP3r59Wtws72iZMoRVCnGAOPBrolLHpMhBcrLxLgSc7U+PGfmqqopP3JsZoJzHLt9KTHkKBikZ4vkQbTSbU9RHGSN2D4HuPmryT6okH7a3IZV9dZGZ+xc8D4rOEvLPe5JmmgDMCRlW5bGR8g0qUFJ/UXNuNWAVUbOPJremrIhn5ql7b6Xpdxd3cgSKNCzMRk9vA8/atZNRRWTssis6vrlsstvb2kZuGbYzbCBgMuVbJ89jjxWbqLpiYykYOpLGW50yOyVHeIsPUdMgk5548k9uPvSRE43WJJ6ZppjgWJ87gCSGJPsACPcDjilr9RaMbGrZWqR3W4ZXB/RyQw9wc9+PNZqO+QSN/80ETeYH25C8NksfP0/wDQrJtNF72PUmoNFDC8OxZQfpTscAg4z8g+as5qmkLsjJBEXN6tsIrmRxCU27w4Y8DHv4zXL4ylPHbf9PUY7ZFP6mhWPWBDHCVNruhCZI3ZIJKsPIz3bnxValOzfcwnz+hrXFjeWd8ZPyiFI0JJeQlGIAHOBww4OfasYVYW58xKnNPkanWOrW+k2LXdhHHPrE5LJaqQWiHP9qyrnIye1ev8M+GPXzyrXjTXN8sn6L/JWrNQ4o9Rzz8Pp4oeorb84lzcCW5jaVAeW2tuO4eea+z1sXKk4wstnb8Dkovj4j6P1Dp2wvxE+pE3kQBKq/8A4WCc52e/PevmtLKdGnjHY9FwUuor3Un4aaVqdozaeqWlwAdssYPHGPfj9q7aesnB8W5WVFPpOB9ffhpqPTFlHqEtxHKocJIMHLc8HtXq0NXCs8TlnScCiabq+p6FqDXmmXkltck7WKsRvGc4YeR8V1ThCaxkjOMnFnSPxNt7rqXp3R+rtJjsrfSpybe7SI/XHdAEM0jHk7hwADgcDknNcGlapTdCV79vob1FlDI5GqlWZG8fb/A16JzhcL9RTeoyMHtnHBNQyTYscySrGIzKVUqioASzeM/Hz4qsiUXbSnVdNudDe4gt2mv4pJryST6IhCCxO7+Jc9lA74wcVyzW+fty+ppF7WLnr/Wlt1rLpQtdMvDqVrG6MSMLPDt4LDPG0gNk9u2a5YUHQvk9n+ppKeZKP1badRQ6Jpk6uNRguEnhuHyELAHfEx/4h4rPwXTvLsWzytEkfxJudOj6MvII2ARpE9JUXgkMM4H86y06n4ikWqNWOQPcy32p+vLcyzQlgZDzn6V4/fI7jxXdbFGHMt/TV+k3S1rpxQr607wifcCAzDeBn9iMGuStHjcjSL2xOv8A9Gq+W56V1m3QEfltUkGD3GUQ/wCea4tUrTX0NqL2Ov1zGwoBQCgFAKAUAoBQCgFAKAUAoBQCgFAKAUAoBQCgFAKAUAoBQCgFAKAUAoBQCgFAKAUAoBQCgPib8RT+b/FTqdv/AO4yJn/lAX/Ss5bslMjdf02WWwsII4w6rIWlJIGUAJPP+9dWkdp8XoZVeJFlsblbgI6xlAFUKncqMcAnyfmuGs8mdMFsWHTbmRt20hEb6SBzj35rOLZLioklpkO5naXAyxIA5zUQgpdQnL5Si/i91PcaeF0iwMaR3duWlljcb1+rBUEHjhcHzXrfDdJCb8aa5PZfv/g5dRVcVhE5/wBFW9tcakFvJLeCNQCGl4BOc4P7V7FVtLhOOK3OnXmk2Jgw/wCWuHKmQPEMGMeBkcCuSM2auKKvpMZtZYrj0nuyshb0JcpGRnlQ3ljnxwO9dM904xdvcySx4jvem3WlWfT4vrTYljIglBDZLk+CxP6s8V8phVqV8KvVez2/lkeipKMMo8ix+uEgjjxklc4Hf9qylJJYxLI9QzIkoDrhs7lLNg9uefaqRkoviDNS9vy7syOSyAf+HnI5749qxnUznwshvFG1BeOjIgX1Izgu0nYcDkfz7VaNdJ4Rf1FvY2X1FZCoSCNI3Yckk7vkf/qtJV8+1kiCdgu4zDn+zC4HAOR7DmulVVbGQNebV4VaVI3QNEAznIAwT7+3jNVdZ3UbcyLorN/1JYataBbM+ustwYkeQZRWRgCHGe3+hrWanSn4VVcW34PkzGU1JcJCdFxf1l1VPew+qllbAgQMg2AsTkg45xgjB8Vwyqz8Th9StGObyOmwQqyI5XfIMjI4UfOK9KPI2satwGMMkdrI6Ohwp788dvcVD/0lWeLWG3swrOxecZb6Rg5J5GPI+KjFELY07yWW1vLiVJPrkX+zBH05z+k+5rnmsHkTdn4bppEt44LYFSBud8ZH94keB8mqTtK0YWYTK/fazYW+o/lDqlkmpeoEkhMhb9TbQqkfxds7e1Z1PhuohDPw242vf6b/AJcyPFV8bq5D9TdRaTo8aWt/dCa+t49no25Lk5JJjZv4Rz3yTXTovh2q+I01OCxjbaUuT+3NmdWcKTxk7s5R1P1be6xJIgb8vakKoiRjyFJ2kn35x819Z8P+D0dHBZcUlfd+/P8AQ4qtedT6EBp3qyXIW1f05QdwcOUIPvn3r1KktuIyii39OaDri65p9xc6bNhZAVn5IYZ/UGzz/tXDWrU8HGLOiEHfkfTtu0ZigV9ivjCpxkjHivn2egjJOFEbFDsY8E/3RVUSce/FLW7K3lgtNdsYr22lI2guQitnuwz7c816WlpuXFB2OerJeY+d+p/6svdc9PTrIWUCvsMUchKHjkgnt74P2FexTzjDidzkla/CbXT2vXWmzXlnaXpudPu4zC8FxkjaCDkLnAP0jkc1SpTU7Skt0WjJrhNfXrGC7vLm909JTFO+VWQBWQ4zyuOAceKmEnFYyIkiNa2/Jyi3mEcpkAZShzuPYAe/8qte/ERYv9r+Hcmk6Pp0t6szalezGSQxsBHHbbQCGc4Eb5JxnIY4XjNcb1Wc3jyX6/ubKnZcRWupLOyOu3OpxW7x6Hc3DRaeY0KbljAA2jyOME9s55ranJ4KPm7lJJXy7Fx6BzN+IGmenvutBu1lsRO2FIWWMlkxjJORjH37Vy6j/wAT7SW/4GlPn7FT1CyvdK6rl062a4ee0lYBIwT6pycMqj4++B5reMlOnlLuUas8SZ1qUyaLNFKJXtVIlYocHDE+k27HbJYccnbWMFx+/wDLlnyIqHEcSwW8wdJXHqngZyRwM9uP9qs/mINVbg6fd+jZyujR3IdYduD9AOST7/HkVWSyXEDvf9FaYyR9XLuBDXcM20HO0shGP/trzNYt0dNF8zvdcZuKAUAoBQCgFAKAUAoBQCgFAKAUAoBQCgFAKAUAoBQCgFAKAUAoBQCgFAKAUAoBQCgFAKAUAoD4r1zbJ+IXVjyDLDVrk58Y9QioSKsx9RzyQaXKkEaO7JuUONwwDyMe1a05Y1UGrwZsafMLfehJVJEDRluD2GftXC9jojujdfVYtMsJppmQ+ghcAYBcY7AZ75qKUHVmoR7lqlopykQWv/iMVsY00FpYrzIZ5mCkAY5ABH+NetR+GK/915I4p6n5NjmrKZWLcljliTzk9ySfvXs3OM2NPgeRyEfBOFI5BI+9GwXDRta1HS7C8s1ieRJSAGnUbI8HLYHgnJFYypwm1IupOJOXep32o2LIwLMuzbJHCGfbnkADsRn9xVIxUWS22jpuh6Jbw9OQwMXMfphn3HABPfH865J1XnkaxjsW+ytzbAtcDcm0ABTlh7f5V8wqeLcpnWuRnS1WSRVWQrHyQXBJ+RmsnSy6XsTcjNRmS1mjSSSP0iwDOcgYwc7j7YqkIYvG5ScsSRhzhnXBULuDZJBHc/6UVHHpJyyNaK4iUo6ukEBAZZS4REJPKgngcVpUc+neT72VykWvocm/Ej8RSvURsunr+Q6Zbqilo2+gyAksyn+Ic9/PivrPhXw1LT56iCzlfnzt6M469bjxg+FFFl6m1O+vxJLeySPnapkY4I/hBHgfFezGhTguFJHK5OTLx+E+pPezXmk3tzseVjPbzBwoD4+pCfGcAgjnPxXjfGdI3bUUldpWa9uz+xtReXDI7N0c7RafNbsr26pIWkjbgk4ySffNfL120/RM7tPyN6HWUtri+eN3cpLgp6mF2lQVYjwMVvRqOMERKSuzPoWppqxlUwhNpDAqxIPvg5roVRSeJWDuSsvpuv8AZoWkBJCsSAAO5JxWjJIzra+gg0UXHqbGIDL6Zw4OPH7e9Y10pIipLFZHKvxO67lgs7bRdGmkhkkRJ7mdAQXQj6FJPOfJ8V3/APTvw1VE9RVSwvaK9WnvJ+3ZL7mGqr7KEeZQenYr7UL5LiK7/LJYyCb80/JjkJ+kAdyzEH/Wvd+K62jpKDjVWWe2Pqu/0SOSnFyeV7W7mfrxYYNa3Rz+pPOgnmCxiNAW7FBk8HBPPmsPgOoqajS8ULRi8Y3llJ255bLlyLV0oz4e5U55tucnB+a9oxsa8VzJ626FgijOCRkdufNQy6R3H8KJ7wxWi6rqUlnZJcBY1AEZlBGVBXnC89+OK8fWJb4q7sdlG/mZ3aJFdFkfBVT9BIBPwc14s54HWkc9/EHrqDTdMd7ASMp3L+YGMIynkd+/HkYrt01DxbGNSriuE+Yut+sr7qREW7ZCFYspUYwCe2PvXu0aCpdJxzqOZWo7eeUFYlLgqHwuTtPjJ8HitW0Vsdn/AAf0LRL57ZtQSGTUMIyiUAhSGO0KMd/t3815usqVF08jopRUjs3Vug6GdLknvbSK3m9QDegALHJJXOOc5PavMpVal8Ys6JxVjkN7qXTlp1ziTT447dLcRrNAcvGowdufZsH7Zr0FCpKlzMHJXILU+qrq7udYvld2heQSWghwQ0+CAFBBVtqluGGCQfIFaKiopR/H6EZ7nOtLtdR1mERQie7eBAEiTlgmdxCrngdzx5rrlJQ9jGzZms9Q1XprUhcWEr21wN5jlI+tQ6gEgHscecVWUYVFjIlNwLD+Hdy8PUFhcQkyzyTJDBHyXlJV8qG8HJ7HwfisNQuBo0p8y9fjBotpo2m2LaapR5FMEkS5IkGd4JHurZwfmuTSVHNvI0qxt0nJ2milt5oVMiyKRIvJIYgYP27mu1oxNWe8M0sTuAsiKNzDjefcnyfmqtWB9Df0UQRedWMV2iX8s+PnEleXrOx00O59D1wnQKAUAoBQCgFAKAUAoBQCgFAKAUAoBQCgFAKAUAoBQCgFAKAUAoBQCgFAKAUAoBQCgFAKAUAoD4l6hl9L8S+rbdhndq1wB/6yc1VPexVm5M229s/LOGixxgg+al7TRaPJkT17qM1uthbWMuxirMHAAKrnBAOOPvXbRoU59auYyqTXSygRl7lwJZNxySS7dueea9FWSxic74nxGuxwzZA3Lxj/AK71oip+W5BYl87cdh5NWBIWd46FVZNwBHPnH+tRYFy0KeyuxsXT5UuMkxiMNh+OWbngAc/NYzTXcurFs03RorO4SCH6xIQqiRiAxz4HfGfntWMql+IsonUrltlrCvp5MDBtgxyMZGB5GR+1cceZsyeJZ0Lt9LMAxwcEH2zXkTW7N4mSBnV97KWQ4wRg4rCKcX7EmaWbRg//AH+GN2J59WPP71vGrQvxc/cpJfMaHVOpado8CXNxstbCNDum7Ln+FVXOWbnsOT9qirSc6ihRheT/AA+/ovchyUVxcj53/EvrS16gWOx02W9g0623BbaRFCSuTlnbB79+/AHA819R8M+H/wBGuKzk+b/ZHBVq59PIoTF3IJ5Ldq9UwN3TLYXEzCWaO3hjQyO8hwSMcKozyT2wKiUsQkWno1JYeq7JNBmzqEkigbWACeSFLcKG7ZbkD5NY1n/befI0gt+E+kLLT9QN29zri29veXiFTDC5YIqjAJbGM4PivjPiNKC4oO/1O6mnnxdyp6ja3EemeqJJXWRDBcvnjdG30sR3I2kdq5KffHtv+JjNO2X2/AkOlrlNKa3WK6ldpQdwjXJfnuo8Y/1pGrg+LkWht0lhu9fnvHWCyiktICoDs7bZXJPgePfNbVdWqXD/ABl7ufSbV2ulXumRRX8byNvDMFyG3YPIPvxVVq6NRYyLSp7HIvxX6VmEz61bW8sskwClVYEyBV5ZlHaQKBkDgjkc8V73wbW/01tJVaUN8W+zflf7P7HHqKd3n3Ob6TrNzpvqPYyRgSgBgyhgRnOfg/Ir3tZoaOsShWT4fezOWMmuk1rm9lu7p7i4kMsrHczP5PtjwPgcVtTpQowVKksYrkkL5PKRG3jkKFIyT3Pn9q1BvaFbytdHZa+tKOFRjxn4Hk/fgVlUltzLxR3ToTp7W3tri71BYwkWGUO2QT7AD9Q8knz2rx9RVp3xidlODLk0Op2uiXF8l0ZtqiZkaTA+nOQB4GMHNeH8SqbKMdu34mqTtkfJXUes3Wta5f38qmNbmQkopwAM+BX1mh0i0enhRvdx7+55zldt+pByuJHdsbQMAA9wPFdZBKlpYZWe0mit0YbWHqEg4AGW485OBWXV1GhKdN6lLobG40syPqRUrFLHISRkngpzngZyOc8VnUip8MuRMXbpLdP+IGs30aWmq38N4roAqyoQFHByD78dzXOtNCPFFWLuo5dRZ9Yt7LU3WW6tbe1tY0ASWPBeTIH1Ee2TjJ8c1zwbh0u7NGkyjdYdM3vSuoT20uwsZoWtCinDRvkkjnC8jGT35rppVlWWX4mc4uBv/ghYjUNZumBtxLCxKBlD7WBBHpsDkHucj/Ks9bO0CaMdy59bdO6da6FqlukVmjhWc3sYaWeeYgkxqvOxSmMkHAPiuajVnKal+XY1nFWOGyTenp8EKEotvIkwaNsHeQNxB8kDAr0rbnNcuX4m9SydQS6bewmRLKS02xHOAzo2HJHnnHeuXT0vDvHvc1qSy4iC6HtJ59Yt7iOPfE5eCQlN4+ocqRnyuefHer15KKxKwW5s9X6AukvBJEH2ysVO7gIy5JA9wBgZ8msqdTMtKOJ2f+ieJGbqSR2JQLaqoPj/AMTiuDWc0bUO59DVxHQKAUAoBQCgFAKAUAoBQCgFAKAUAoBQCgFAKAUAoBQCgFAKAUAoBQCgFAKAUAoBQCgFAKAUAoD4n/ESM234q9XpwrHUi+T2w6o2f8aq+ZVm5apHLPG8pJeMBQPBOe9S0myUzavbWKeK6hn9REuotjupGcewOOPtVnXnAsqaZzTqPT7fQLuzhty7B4y0jMwO8buAR4GBXoaOtOunKfrsc9emqbSREalLBNMz2luLaAkmOEOX9P3G7uRn37V2wTiuJ3MGYYVUBCTkHlgO457VcqSESw+h9SOhUZLIcnOeDjwKEklpMrR3cT3Mrwoo3KUBJfwQeeAfeoktuEI7P07DLNbW92rh3UbT+YBTcMEgoeMEf5V582ovE3iiW13VrNJbC1ubuRFugYJXLndhyAFD+BvA549qinB7yiuRMmi3dPag+qaVC80HpzophkXjhlOCP8K8zU01Go4m1OV0bf1wzbYYy5IIC7sBu/BrzpXU8Yq5t2KR1v1dB0rb282rxXElxO7KkMeAVIGTnn9IJUe9V0vw+tr6soQtHHnf+czKpUVNKT7nCererr/q17abUysbW+VhSEHYueWJJOc8D9q+30Ogp6CDhSbeXNvmebUqupzIRlJy+7LZ7+D812plD83KoG4kDzjkgVJB5Iw+3kY+osfA96kgm7GCWCVhaTRxTqwBik4Z+2Aee3NZt5dRZI+gen473pi0mbqW4lE9zGrkRh5Io1PJCckA/FfJ/GKFXWOH9Krxj9E2/c7aT8LrKla/ikb7qe1g/Jx22iBzA8cp/tX3kYcj3yMbR4JzW3/x/wADR1Mp5VOrbpVuy+vdmb1Wc1twl96WvUOoXFskaBUQhOMkjPOT9iK+b1CfhKXqbUJLNxJKPTWi1PPryNa7XUp+nGSMDPx2rDxFhxo1VN5+xLNCoXcAN4X6SCSVHgD2qsarh9DRxTI3V40uZYpZmlMMCj1ir+mZD2+k4zu8gDmvThatBZ9Pc5ai3OOda9LiO2k1KFofzDM82YiAlxEMZIUAYlGckeRnyK+g+FfE6lKotLWeUZbRl3i/Rv09PRnFOntl3/X/AHOeFtmdp/evqDEworyy7xg7eRnnNGyUi7dAdK6jqepxMyrbwyMF9WQEjBP8CgZY/fiuPUV4QRvTpuR9Qw6a1jZQ6db3Mtz2Mrzn9R9/+EfArwHPJ5NWO7HHhNbUbSZYZ7VZ4zk/TCjD6hgghvjnkVjXhCrDiQdzkd/+F9ldB47s3CfVuEinBgTJwgHkZ/cDtXbT1WppwWDTsuVup+v1/J9zkdBHFOqOmNR0fUZhdWMsVrBIkM08eWQHIGQx/n8HivZo6qnUSjnxPez2f4GGLXUaOpq1teTW00L2ssbbfTIwVXuM/cHNbR4lkSzVgvPy0rTQuVYAhT2PtUtXCZ5tLwtfQs+HYuM54HfvUNbA+hHkW+0S1uIFd90aqyx4BXABAJ88fFeRym4nV1IhPxQu47yBBJEI3u4llZcgs8qjaPqx+kZ4GOBmtNMrfYrVZUPwrkk/rL8jamK2a3SW8uLtnJEqKMrEBkfSSM+5PxxXRqkrZS77f7lKTLj0D1SNa6V6phuISlpaBLlZ+Nx3sQylvHGQPjNctejhUhjzZpCd0zlLWy6lrdykEPpWnrFyIV9RYoyCeD27DABPJrucrQ9zBK7NW4m3H0nOEjBAB42lu4x4PxQF+/DJksNBuL/CPcLdqkURUEvlcEj2wDnNcWp4p4+xtT2WRq9YX1tqmmaPdyTHMrybnAzyhOTj24UVWnFwbiJPKx1v+iSC+mdTzMMf94ghGO30xk8f+quPWc0bUOR9AVxm4oBQCgFAKAUAoBQCgFAKAUAoBQCgFAKAUAoBQCgFAKAUAoBQCgFAKAUAoBQCgFAKAUAoBQCgPjb8f4RYfi9rrqNvrQ29wAP4sx7Sf5pVZIjuaVtMJIoGi/UQGDHtjvUSeQRv3V+xIhPLK+MAYIOPesqtQ2hE5Z1ZfC912d15SLEKkdjt7n+ea9vRU/DoqMub3/E4tRLOo5EQjEcds8V2mJmiwOMnA749u9SQb0TILhj6gaBx9Xgg+Of9qAk3uoTZRrboJL1SQXycbfv/ALVVLf2FzrGhXMFz0jYWd8x9eBUmWWRthxk4VST9WPIHcVxzTjUcomy5Fe6jkvbnWVE+p/lrdZBOkd7GUkKbhyDjBT5zjn2relaMOX4Gcr3Oo/hZfG50y9ctJtSY+mJAAQMkHIB9z/KvM18LNS9jeiy530ira4LY/vHODnxXjV+g6Uzh/wCPoM2h6TcbuBdvgs2S4KA5/wAK7/8ApqpfUVY+y/U5tX0I41bnbhsjBPI+PmvrjgJm1hJhkDqQvGCO6nPn2/eqtg0LlQsjKHDKDwRyDWiYMMM8kbB0/WrhlfsVb3+atYgsXTCy6lr9lBHBFdwwyhmEkZKHPcsO4GfmsqrUIOUnYsuZ3861JFcTx3L5cKDsZTsC4wCB7YHmvK8PbhOnIh9Lm6Svb9LnZb20pykd0kYDLyOSGyCPGccfFazVWKx5r0KLC50p59MtTGYtiSFDiQKCXAGeMdz8d8V8prqeEMI87/8AB1QaiyLs9a07X7AajouoySxeobcOsBKbwASSCOQM5z2rkqaWrpZ+DqIcVr2vvYs5qfFBmPVb+UW9i0eqFHuSFUlAiykDlVP6Q3GMEj2rKlTU3PKF8d/W3v8AQicnZYvmQz6td/1pLbbZGuoiGZpxn0wQcgr7Y/3rrjNQgpROdybnj3Peq3FtqGmQsYrYCKQqJSCUZiMNtT3wccVnVquXFa3fb2JdpI+cr9RBdSxKwKoxUYORgEiv0uMs0peu5w2Njp9Y59RRbmUxJtOCrYOcds+BiqVHtwloo+k/w11Gx07RIWSBLa1JCqyEn1iBySx5b344rxNTFzn7nbTaSNvqfrCVc3FpCI0DYcqckjHBx5qtLT+WRMqhj6R1aKeSRr1Jolcbo5HHBbPIzjk/ftStD5SISLlaSQNeyFHDKTtLk8FyM4AxxjHeuGbwSjbY1Rw78XZ7Z77XbK3X1ppI42n9SQxxuCR9S/8A8o+nOOCOTXbQp3qUqvJRb7Xe3Z/6X+vI5Kz3Zwu6M0syCXcLtcRt6hIZiAPc8f8AWK99W+xj1GgcnfnG7Pf/ADqSD3ZKXuE2/qLBRzgZJ9/FGyUfQPQWt2lpEOnr28iNzDEzMkuUHreVzj9AUZz5785ryK9Ny/uxR005eU5N1hqEmqa809s+LZ1WKKXOQwXOWHxzjAxmu+lFQhuYyd2akc0Wneteaa8iKHCxpIoYtHg7i3t2xgeOKlq/DIjkYYNXubWx1KySQiO9YNMqgBTjkYA7D/Tijgm1L0CZZdOhudM6PsUtZPWfWjt9GKAn6UcEBj/ESygceOO9c8mp1Hl5TRKy+pULp5ZJXadAkkb7WQd1OTkH9+K2Rmye0fUpdP022MG9i07yOFONoChcA+/NYVI3ZdPEkL20kk6O0CNId+LeaXIOCo3EgHjkcd/JrDL+5MvbZH0B/RQtPS/Dm8uiMNdajK2fhVRB/wDia8/Vv+4dFFbHaq5jUUAoBQCgFAKAUAoBQCgFAKAUAoBQCgFAKAUAoBQCgFAKAUAoBQCgFAKAUAoBQCgFAKAUAoBQHyx/SvsRbdcaLqGwBLzT3gZvdkkyP8JKiXIg59pUrnTrf0yN8CE/HA7GqX2LdzLqV1DbWc10ucpEXJ87iMDH7kVnCHiVFCPcvnhFyOYSE8DduA8+5819Ijzj8VTgnOMePNWTINsOqwOz/qYcAdqsQam7kH+Ec48Z98VdEE5pt+k17FE1mAZAIzFFkCTxk/NVccVzJTOpW1oZoLGG5sv6wjt/qigiKgIccLk/qHPk9643LG+Lsa2JTV7a81LL6raTJZoQbG4eMKqof1RkE5VgQRt7EciohJQ6Xv3Ek5dRetKngt9KWSzWOOC3UAFCSxGRkFceQa5KsXK8ZczVcjNqtyZH9P1o1LLlQp7ITgfv4r5nV1Jp424TeKUlz3OK/jxLMNW0mH1c2y2pdIlPCNvIJI9+B+1fRf8ASyXg1JW4suf2OTWc0c1TBbCkkAZJIxk19McZNWguJrQ7YyVhjLswBO5M92+BnGe1UbSZY0w39mskjFYgxVX2k84/T/j+wq5UaZZm8JKhXAGWTcF84xnHf2FTKVgkX7og27aqsMcb28BiMZWRjI00mCCMqBjk4x2HcVyahNw+/wCRePM6bBYS6It41tM9zcFEUpcj+yU4Hdj22+/muRzU7ZG9rGKKzXVr+2WeHTrm9aXdHEY8JIMZb2wPPOT5q2WC72ItdmC8u5dA0TW5rqHa1qS2Ub6GBBCxg+Tkjkc4rzNVQ/qdRThF9Vvyd7lb4X9jl/TGn9RtZW8mkahJEARNBbx3ZjdmzgsI+xHHJJxivotQtPNvxYJ32vb9zCCnbhZ2/QtGutV0651K71iyXdIrXen2E4mhJyOGGNobPO0ee1fIa/RQpNzhdWV03zOqnFy4r/VE9qOjwySH80oS5H0rg/VJH/Dk/wA+9eJTbgl6Pc6qlNS+pzbrDqHSdFBWzktb+8IDR28OWEeDkb2z9I85H1E8YAr3NH8Kr6x8V4w7t837JfxfU4pyhD3OMTqXldpgXkfLAKcHcT3I9sntX29/lOVFhsOn5LeztL/U022sr7YtxCEhe5HnHyPPFYSq3bjHmaqPmkWmDUW1AJFE0kMUAYRRW0bYj+FX+EeST+9YOOJa+R+TXWo6nGtvpMU3qF9oV2y7Hsxx4HmoeFPjm9iLuXSXzoLV5LdJdMnge4hiO5jbpve5JwCfgcY48VxVabf92WzfZ+X2Nqb8pOQ6j1BN1HbTy6T+X01ndYLaRzgeAWIH6z3HfFZTp03Tcc9/X+djRN35Fd656eu9U1lZNR3qtmwurVY32l3wCwUYwewDH9q5p66npqTlSV5S2f07f7Gc4ts4v+Idimk63IxtvRaYi5iUKAAjElh34IavV+Eal6nTKUndx2f7fkYNWZUmiH5SV2I9VZACCRlgec48/evTvuQbVlBtu48SJt2hwUcEj4z4P+VQ3sLEtrMFw1pBqd5ej15gUjVSHkeNTjcx9ycnJ5I57VlBq+MUS13LX+FyaHdaV1VqHU5tnkjgP5IS5ISbaSGUDkHgAHt4rn1TqJwjD7mtO1nkQtv0qsnTlvfGcQW1xKAiynBcZALFv4VBOcDmrutx4lMNsjae129ZWlktpatbyzJbo9uv9lIuArSqvGc/q9jxxVcv7blctbc601vY6HYQDTru4sLS1u32mQKWUElWlU45Z2wR4HcV513N8Su2jeyRyfrjQrVZ4b3SriKW3u7meEAt9ZZCCGORzkZJPk120aj6ZdjGcflKe0jpb990Yfv3RTj/ADwP5VszMtWpa1Lb26Wpt0UWWnmzXk4YuQd38jnFceC6vV3Nbn1R+AWmnS/wj6didSsssJuXyMEmRi+f5EV5teWVRnVTVkdCrIuKAUAoBQCgFAKAUAoBQCgFAKAUAoBQCgFAKAUAoBQCgFAKAUAoBQCgFAKAUAoBQCgFAKAUAoDgf9MDSmuOidH1WMEmwvwjY8JKpGf/AFKlE7ENHCtJT09pB3LLHuUZ4zjtWVrE3Irq2/SVII7aVGQPl9vZmUDB+R3/AHrt0lDBucubRjUllwlQzkk+Sc16SZkbDjBRxjBA5HYn4qyKsySN9IDIDkc+/wB6uiGbui6cuoXLRoGQnISVcExt4DKTyD8c+2aiUrBImtA0+WXUra5e2lke2YvI6sB6ZTJIK55GOff2qs5bYkpHWb3WZVhmuLR7e8sDGssKQkITnG4A45+33rijDyy2Zs2ZOhOprrW7LULK/WWKKAhoJryMFyMHAwe54qa1JQalEiEsuE1eo9av4NIC3cL3LSllZ7NskEEEYXHbxn71pSgs+H8ys5Ox7s+rjadFR3ctqH1VH9KLT53w0hyMY87cAnP7V4uo+ETralUr2hu8vRf57GtKsoQylz9Dnej6LP1XY6/qEqFr8zeokjnO6QkkoT5GOMDkHFexqdbD4fOjRj0Ws/Zck/r3OVRdW8u5qdJ3+io0mn65bpGkitGtwRu9FzwGYYyACPFelVjPqgVi15idvf6ntn9O4vL+5UWfoI2l7I4ZYWznLEZY+Tn7VnHOXSlz7lnaJC3Oh6VcXcUXS19fX6yKCxubNgLds4IcqDn3yBjHetVUml/dSX3KuK8pLWvR2uvMLfQzJq07Nh3treRY1/4RuABOPPYe9Uden1T4ScH5dy4dDaa9vq95+eigt76xjHqpj01hxgZYZxjtn3Nc9eacFjumWhHc6Re2xjAlf1P+8qMsi5Dkjg5x2rji/wAjdohtKngttZsppY7gPHIVDMoIXg5bg9h8ftW0k5QZRPcwddWl51dok9gdVZRHcpMZ7wExuoY8AAfSPO3muFaqno9SpyWyTW3qyJpzWNzgF+zXEjtJLJIIWKFJiQVG48AZ4HHjtX1EOX1OJkpYdTX1roVzoVtMY9PuUKyBAA8mSDgn2yPHI96pKjCU1VlzRZTcVYvNv+IMum9GaTpWmxm/1o2xNzPM7MLYknhif1NjB5IA4r51fBPG1tXUVeGnfhS83+F+bOn+otTUY7soVtYsheN3CygjCbSWkZuwx8+5r6Rzuctjbn0K7tLp4Lq2Rbhow2wSrIRk9yQeDj+D+eKzVRSWUWWxcSb0mScKkc7md4s7oo48JEMHBdz3554rOdi6Nm1a5lgMatDI068iOf6iAcgHHYfFVlYK5celNNSa21CbTYd9zFAUmlOSJCf4Ubsvjt3rlrS3Wfrt/k1ivlLL03p2p2twI3jitpfTRg0iEvgjlTg4IHvwawqzgzSCZbNdvzZdNMsTyXF5FGWiQgAu/lV55bxiuWMFOfFyNJPYp3R9prtxaXXUvVMmmwwXHpsT6noiJFyCCDwpzyT3JzWXxLTqpOnCj5b7ev3KQT6pHzv19qMep60IrX1pre1UwW8khBeRfUJDE+Qc8E4PvX0elpeHT5KLe7S5XsckndkLqqwgqsLercD6ZZUH9mSD/D79wP2raLYkiQ6UtLWeWa41F5Vt0G0LHGzGVyDgZB4xkH57Cq1ZNcMRFfMSEiaNpFjnVLK8OpHc1rGFAWVT2aU57eNo5Hnvis7zm+F7fzkWSSXERdzrheC8t9Pj/I217GguIFO5WZfKnGQM9h81ZU+UpbtEOXyk9oury6np+j6XKplttPf1DCcAMcjH3HIGO5PxWU4KDcvUsnlaJ1ueCbUmbW/6vSzvnu0OnSoyyLtWMxtlOMAfUQB3rzk1DgvdW3Ojq4iY1GxFzpkOmX8hjkjiQySBQfUOcgAnsfp7+PtWUZWeUSzW2JzO46hhutTtWvookg0mwmEcUmAHncFVJGOcKe/711+E0uHzMxy/I5owJiSNxtiP1MAOx7EfPfGa6mzI3PVn1e/VWYme/njhAHsCAOPfhRXNPgX0LriZ9/aVaLYaXZ2afpt4UiH2VQP9K8ZncjboBQCgFAKAUAoBQCgFAKAUAoBQCgFAKAUAoBQCgFAKAUAoBQCgFAKAUAoBQCgFAKAUAoBQCgFAUz8YdCbqT8Meo9NjXdPJaNJCMZJkTDqP/UoFAfGGl3Xr6JDLu2j0+/cqcH/Sqxje0SrKozMERPU3LFlo2A969VMwZrjkk/c4FbJlSQhtZZIFZAXCsFVRg7jjJwKnIixmt4EuJvSDPDOnLAg9vOR4q18SLE9pulppky3d9dWyEKGVxuGSPB45/eqOd+GJKWJPaBrxmvoboWELCN8q8aD+0Gf05z+/NUnT2xuSpFjivdP1C7nmmFtc2aKTHpCYI3qMttAxk8E/TWeLS9/UvdSNHS5ktZHniuHk02cCa1naYMbc5+kFs8kE4weR28Vo9+Hv+pQkZ2sDozS6xcQ395NIIjqMUgQ2jsMqd4I2gnywx9qhXz4Nl6epO1uIgf6k1VrmQXX/AHm1gY4cMd+0gAlfg+V7HuK38WFuHYzxZbekZ9Is9HnWYRWE5IZwuI4g3ZWzk5PHjvXjfFdPOs1KKctrLuzWDUTmPU11aXPUl3+XhQwSzCQOOFBwNzDHIGcnHnxXs6KFSGnhGr1Jf8fkYSeTJnU9VsZL22NopuIIWLl48FJuB+nPZQR2PvzV4RduIlslrDr7WYLD1NJ03ZArlGllIVVbBIACj28niqPTQk+JllUflIqPrK91ZprzW5b26niBWKJWOIuSSQARgfzrXwFDhhZFM3LqJ3TutLLT7OCe5tZbi3kfdOr4cyozAEP79sgZPNZyoNvGLLKaOnaFqc10ktubtJ4I5SYGQEFVIBUEe+D/ADrhnC3Y2izdvLOA3MImYptXcWByRzwTxjHPbzURk7EtHNda1nUtG19tR10XVzbTgwrFCqoXTOdxXHB5HbxxWlbQUtZSwjtJb3/b6HO5OLykfnVOkWWqW17qdloltdT6hD6sE4vmRi+MFgpGJG+nj9IHIIzXLoPiC00YaeteOLx5XX3fZfj+BNRKfF6nLYrZYEZ55pIXGVKemQ4bGSDnse3B55r6XLLp3RzWxGlyXENwkkAf1f4ScEbs/Pf9+KmVmiET0l1JJffnXZ/XUDAn/tATjGc+ScZ44FY22xL38xpzX9wsga2EcJAIKwRgF/PPv9zxirYrzEXN6CfUYrJ0kDst1IEjSOMtJNyM8+fbj+VUahf6Frs3OnzBe6jcWl4lxGgX1GFm6u6D2dc8DjBxyPvWdaXhwzuvuSjsPQUcfTdrawThGEhMsp3HLA/xbfAx5NfM1tS9RVdWWy7fQ3p8BbL3XIrqyvZ7EnMQKx/mlAWdvAQDnxjd4rqpK9pdn/NzbLLpKXp+mPftp2o29sZNQivSLhWmxDCNuVK8ctnjK+M5712SnjePaxRR8xVPxzurawtItB06ZEt/VIvLMKGAckOBuz9J5+5zW+iTbzl9mUrO3DE5NqMFzpjjiN3kUGJ0AJUDO8Y8HDYINehFqZzWsa0lnb22k7pN0N+xEiwOD9URJGAfHbPOD+1Qp3nw8lt9y3Ylvw5tI7rXrBdTguZtJWcMbaPOJ38D5+/j3qmoljB49RaC34uR5/E+9s77qa8n0u2WOzdyylUwFAOAAMnaPn+I1Gmi1FRlzJqO74SpQZkYRoiM7diRkk/etmZFk0N/yb210ZLZ2jkBjibOScdyeBj481jPfhNEdAm61tdOmtLuyupLm4gklxaOuIjK4yZO37Y75rjVByvGRr4mJP651Vep0jbaibaO/uIsbzGQy5YEMWHhQeD/AJ1hCivEx5F3N2yOXXVlFq0aXl/fRxX9yzMsSDcTxnJUdsnjmunxML/LEwtfiNO6MB0mNYI/TA+pt4+sckBfttwT81N9yexP/gfpB1r8UunrYrmO3lN7JkZG2MFhn/zbB+9c+pljBmlJXZ9x15Z1igFAKAUAoBQCgFAKAUAoBQCgFAKAUAoBQCgFAKAUAoBQCgFAKAUAoBQCgFAKAUAoBQCgFAKAUAoD4H670tukOseqdC2FIILlpIB2/sZDuUj/AMrY/aph1lZcijOUMSqpwy5BPgjwRXoRZgxarvdlwdwUnsTke33rW5UvP4eNaSxXdpcQia4IWSLeQV3c7cD3ye/jisq19pF4G/1fqIs7D8oYreO6ZwRcFf7VR5LDHn7kZqaUbvISZWk14pbfl4N7nPBuJiQT5IHg+Oa6MN8jO5YemZxqLyWqmG2RlBJjKoyt7buDn7VSorcRMeItHTDW2jzm0ubKJreOXf8AmJJ1kBbOR4znI7jsayqXnxRZaOxudW6cdXvGOk2rz2se1pbe1YRKz5yecYzzkmlGeC4nuJq/SWzp2C3WYjUOn3iSRDE5kRZEC8ZBZeGXI7Ht3rCo35Zl4r5kbzdLwS3puLW4ljQtkRmT6MZzjbjge38qjxnbGROBk1jp7TbCxvdS/Lma6/LGMp6ZdJBg4AQeee4580hVnJqPYSio8RyRbSz0qyF6lrpwsyA7O9u+5jn9JDHOe/Jr0cnN473Oe1iRu9JOoKzWWiyie6UMPTiEccZGCFBz9ORySfvVYzx6nyJav2I7X+gUsLn1X1YWQYBYLZwxDORuKhlPA8/VV6epyXK5EqeJtaT0ramzmvZb6wubgx/2Pq4tSzgjJjZjyMZGCOf3pKs742f6hQRi1npu56guRPpoM8uxIWtIiI2ij53A5GCMjPAxn2q0Kqp8MiHHLpLTJp+rdJPb3dvAfVEYEgkUsqrgAGQ5P2/bNYqcK3DL+fQtZwLn0zqyaobh2YwO+EkKYI3YBwM8+e3b2ryp1KlF4VV9H6ovCWRYNY6T07qDQXsr7e8DyCb6X2Fip4AbBKjPgd61pamcHnE0dNTRQ9c0aKwR9I02JLO2t2LJBI2RhzwwzyFyGOD3Ncmuu6iqy3yX6HPUj5YlD/EfSRDDcX0yoUjlRY7kMC1wv6dufIzzkjIrs+DVpwq/08elp/b3X7mM0yt6DDFJCJjKPXjJVY2HByM5OeMf619BUbKxR7toRe3giNxFGoiLNNMx2R4UnGfJOMZ9zVZSwWVri1zb6fbRLXUYbnqJ5jbhS7WVuSsjx+Az8c5/hHOKip4kljD8SY2vxFnh6r6ahvYx0l0lf37xIfSjurgiKJiSS24cjk5PIz+1ctWLpxvqKqijRTh2Rv8ATunGDSVWIxylZXmuBGuCzOckA4yVHYAnxmvntTqZ6qpnLpXJe3r9WR1F20uaJtDmuLkPDMSYY5ZCAMYJUAHufHFUhJLikaxe2Uip3fUOn6H07cejc2sk0EghmEpYuJGPc/A74H719Aqc6s1KzswpJI0el+oOo5dDuLixvJJYIMugUAbz42jyx+TgVarSp54yQjJ2Kb1DoOta9q663rdhFoum3xeZr5IcIgUDcXAJwTjg9yceK1/qKdCOEXlLkl6v0/nIpJN8Uu5XdMu7W1jVmkdl/N7hDIoLFMYEhP8ACccEDuDXTOM5L3t+ZknifvVFpDLqzC1EKswLNHEGGCSTgA+PYDxWGidTwv7v25cvt+fuC39KWGpRae1hJqkqaV6YkYWagMJONybyu5fpOSV+B5rk1Wsp0+KS4vT29fT8S8G0iC6g6NfQLi19V5bq11JTNEuCm6NWwTKwztK5znBFdFDV/wBTTcorFr7iUWjLofRyPG8k8piaR/8AuzMozt8Mc98+MVyan4phPCCT9d+/oVSJC86BV5FRb2Tcc4McXBGOxGf8qx/7u7/+P8y+J417p+fSoI5LKVFeKALsCkSuMcsPcnOcDtWtD4gqk8Jwtf3DWJ46b0o6rEE1jV0sIhlZLZiRmIckt2wM/wA63r1HD/xK/v8AzmWjHLuQvWixp1JNDp5f8rBGhWQYAIC/qA8VaisafEJLfhNma0RtMmmRjKq2ojG1iQ0rDJJPwMDHesm919ScTsv9EvQMNrWvyKf0pZRMRwScPJj+cYrk1U7uxvRXc+j65DYUAoBQCgFAKAUAoBQCgFAKAUAoBQCgFAKAUAoBQCgFAKAUAoBQCgFAKAUAoBQCgFAKAUAoBQCgFAfMf9Ljpz8vqOjdUQp/ZzodOuiBxu5aIn/7x/Kqv1IZ8zsWz2wYwVIOO2eK9CEroxaN3Sbg2v5klAVZQWHwDyPtkjj4rR7lTzaXctleCa3/AFq+4A8DPjPxWtrorcvPUWdX6O0+4XUYpJreQiS1AGV3A8qcZx9+PasqfBUcbF5bop3oDkGO4KqAFUKqtnOBg+f2rpTM7Exbm3EccZhe4aI/2kQzlMcnb/exn71G5JaE0KfVUgbSbqzjhUbmjnlKtGc9/isvEUOonHLpNzdFoix3E8od5GCM9mWEUDZwSxP6uB+/ei4+H9R0lz6V1OLULlHMtxdIrYjDuiJIcfqJByR8HisKscfYvF3LxPqdjp0KtO8cTMSFRZFbJ9hXMotmt1Ew2HUlrqV9Na6dJLcyxAb9kR9NTjlQ/YmrOk0spEKV+ko+s2cPVmo3F5FGgniG3F9H9KFSQQwzzj2FdcJOisf0MWsyxaSNS09Qbu80l0ChX9OJ4jIMcgrkgj/EeKylhLpTLq6I/UtL06+juJ2to2vWk2LcxgkBSRnbxz379ga0jOceHsVaUiM0W0OmXwj1HRNIuV9I+hdKrSOi5wCwwdrZ5ye9aTlmuFsqlbqRu9OObvU1mknxkFTLvxLHk5BU+RxVanCiYnRpYHn08TW1yZ2gIDB+C48ggeee3muROz4jVrYpHUFvFoco1CzuQp9QSTiZgFWMjvjPGPtXTD+8sJrYxkseI39N64nh0tJbaOJ3YnDncYSMcbWwN5HsK8zUUqlC/p/OfoFVxRRdUHUi9TjqG2l/rRPTKiC+kKlVYnchx/CO48D2ropa3TV9N4Nbhfql6eYyeWeXM1WvdI6ttDprTTaffSAYguMKxOSQVY8EZ5+RWMdPqNBUWoilKK7x3W/r6Fdp9Jz5zPpcmJbb9LNGzqSA5Bx9Lex7/NfUxkqiyi+Zl0m/c6pbR7J9OtEXC4kMiYBc84AycY9+5PNQoPpkyb/KW3onTdP1+C1i1WBFS5UqCxaVzzw27I2njx2HzXkav4l4FZ0o9i8EnwyLTrnSSaHp8Vvp7p6GMsGcYAzwAe5+5714urbrVXVkWqU8VwmzFp8VsLbbcPJvUAwJgiPnJG4dz59qoo2GNizyW6WMzvbmR4IFwYMK4iP8Tkc8nFVqynFrA3UVEp2p9K2HW9hLezF9JDyIw/LoDI493Jxk4PYea9+lJ6G8YvLbvy+xTBT4uRvaLZPp9np9lp1pLDbbyn5eNAHcMSAzkngf8XvWNSFN8dV5N92/5+ASxN7r3XGj6R/qqCF7i6lTbCIrf8yI3z9DA44YY4PbNW01OCnnyS+xec9sThTaHLpcdjdXLxRyGRnlefBdNp+sFcn3xz3PAr1nUVROMTmxI9Wk1fWlksrS9vLb1cqlvBtkZAeQo5AOPufeoc4UaeM2oy+u1/1K23OoXV9r095ZafLdRRyBBDHMbYyTyIxH0yjhQy/p3c9uMivOrUaTpucVfvzsv4/Q2d+k1NdU3qSx3N41rCgEDJchmnkhRiQobH6Wbyv6vPFctJ6qmuCC3W1vK7c/r9SruSmlW9nJFv08C6eRR6uxwCp8BRnhfvXFKhOl1Jr6kxivKWDWlH5S0ludM/LSxEKHjbgDtgjPb4qWvY1ly5GLWbO9kgE263uXiJKoCFYp5wff7eKmdNyRLTOW9baS02u6YlqQ9xdoGZnfALA8KSfjx3r2dJUhGlw7JdjKS3MNyyaj1DI7WJgyDHcR5JCOuN7D3U4ztHHNX5Q5k9TNbT2jFjqzpAJbeWVYYgMD6mP8I8HBIzWdR8i0UfY/4WdOf9lOhdK0uRQtysZluMDGZXJZs/YnH7V5s5ZO50xVkW6qlhQCgFAKAUAoBQCgFAKAUAoBQCgFAKAUAoBQCgFAKAUAoBQCgFAKAUAoBQCgFAKAUAoBQCgFAKAUBVfxO6WTrPoXVtDbas1xETbuf4Jl+qNs/wDMB+2aA+A5kItnSeJo72NykisMbWUkMpH7EVrQl5fQzkjQiZ1KyAbgpKkN2+Qa7UzI2rljvR9uEZec9u/bPnvV4sq0b3T94ttqsQnw0Eo9JlJxwRgEnxjPerTV0EztOmwWlzp8sWk/lkniiCwtPbBmh88j+I+3864W2nxG6XynM+tLE2V6IYvrhtwQBDuA3HHJJ7k9z4ruoyyRhNFb/O3D3G1EkUZA9Nc+/bHn7V0WRQt0WoGfS5LW6sZJXUbpHUlCEX/i9/GB4rHHfKLLX2MVtHZJeIHtJGQ/SXiJIUtyFYA8cfy8VZt25kJIsr9Nz6hJDLp17pMFlGo2iWVsqcdmI5Pt/OslVUepO5fHIt/S80EdlIsusASBg0qRxCOJyPp3YPZfA7E96wqJ35F4/Un7W6v9QhuYraMQQghZLt1KIF8hFPx/F4rNpLqLbyPWlWOjN6oZYtqko0cmSCMZPJPAx781MpTCSK5r+t6NeSyabJLcSLEolnMBZdgUnYinHAA4OPOK3pwnHiM5SXSb3S02jJcMkVrFbT3GIn9R2kbBAGWPYZA881Wop+vImNi6xdM6VbQIlva7HhBVPVXgqT9QBPYeeK5/GnLqZpgj3b6vbWB/LwwAKGAG1QQPfODRwb4hfEj+o/yGqNBcXjJBDaZeS4ljHfwUGDu+x4NXptw4Y9ysrSKLPqq3Ok6pcz3oENk2y1hAH5aZmOd6nGQzp+ojt7VtLTpw8G3V+K/4fIxb2Z40HWl1Szae1lW5gYCFlc4aFiCWBOORx37Ecivn9TpKmmnhLb37P6FVJ/UxrodtcLMt1A9w+3McUWC4bxjiujRVqlOajF2+vKxRRKd1vY2Fj+Vs4dWvbjUlybuC5X6Yj4VWBwcZz59819RppXvKKWPaxWaS77lbu7dY4YdjkfSd2eQWzxg/auhSKNHTvwjnhhs2iupIR6WZFhlBzOM4AQ+BnP3NfP8AxXTf3XqLLG2/1RtSOlaZqdlrS3CalBKTLldjjEakHgKccMOO/avKi0+KRvGSnwyNR400623QXMZeMFQFXBGTk4HOT/nS+2VytrHmx1m5t9Oa2f8AL4ugYjICFdBjjcfJ5+4rp0UVVblLsTGTSxNjTtLgniV9QP5hog5jiilCpHkAZJz4x45rq1VRYY+pbGJYpDaahpZg9Qbim31I+Cgxwce2PNc0HhaRfaSKN1n1Np3T+gy2tjPvZozi35RXAP6pHxkL3xjua9KlSnUnlIpKSisYnEpZdK9e7fW9Piur27AdHhuDClszYHpycnngHIJOM+9d8o1ZNYTxiue17nO7F86c1rW7tY9O0ufTdM0+3jZZWsRy7cMAu7kcDOOA1c06NKDzkryfqaRb8ph6jD9Tahi91305RHh5RAwSM4xtJ4+o/GQO3arU34a4YETWb5lhGhWenWcN43qWl5FhpbaO72mRFAGd2eBwTtHesPFnNuPNfQvikaGg5j1u61e4MUMJJiAZwRNuGVAPkj3HjtVdU1KCpR3k/wAiI88idv8AVLOzfbNd7SyELDGhIOP1ZBHPtXBGjUbxiv8ABZuxX9T1FEgguyLnDneotFO44H05bwOM4r0YwtwENlf1XWtR1KKWC304RPI5VAqB5EBAzI3sSM8j9qmFGnTeRDbY0X81NLKL99qsgjB2jLjP1DOO3GM1FRqPSTFEt+DvSjaz+KMNm4B03TAL64jGCuRjYPnLf4A1lWqcBaEdz6/riOgUAoBQCgFAKAUAoBQCgFAKAUAoBQCgFAKAUAoBQCgFAKAUAoBQCgFAKAUAoBQCgFAKAUAoBQCgFAKAUB8e/wBJjo1dB67bVoIyNM10GVinaO5Uf2g/8w+r77qmLxdyGjiCxPLIVjPBUMWxgMB5PzyK7YyMWjJPKywLATuiYBoxz9B8itYlWa4+oFTzxzWqZUsuldSXFharBBNIp2qGbyDk5wftVHTTZKkXPROp9MuIo7PW4bWeCPJLlDvUHjJPg+fispU5x4oF1JeYx9QW2nCx2dOSRkxkvknDsO+FPkgZq1OTvxlZJeUrX5W9tBMjD+0YAi5V8IOchl55bx24roUkylsSEW4kjYzSPNM5fkbiAwxn6vetbFEY4b+6lnHpZkcuNqckE/K+atZAsel9R6npjtHcWtndep9RSfDnJGOOePHFZypwn7FlJxOi2vVN3Dp1pBqlvFczjLSRx5VXX+AZ8EZzg9zXK6SbeJpn8xg1rrA636egaJp5t7hpC1w02AZWxgjA5z2OfNWhRw45siU78MSdtunRpenW8mrubm+jbdHZWbKrnIwAzEdvOD47Vm6ub4eXqWxxXEfusQvEyT6hdxxQRx7QkSGMI2c7iOdx5xUwfyoiS+Y39AuLixsbi8vIb26SXIklvCWBGMBQpPfHgDiqzSk8Y2+xaOxs6Y+mWenRxaVaXhvZEG6OR8hQScE/3VH88cVEs5PiewVvKV3rHqW0020ihjls9beViBILkRbCCAVCjuOcAnitqNJt/KUnK3uUvWuo5Ly/s7GVbKK1VCjxqiyJGCSCNinAPjvnHJ8V0KgpQeV/X3MpO5q6RqGlaDdW15ax3aadcAx3FvJKshDA/RIV9u59/FZ6zTz1VNw2yW67fVFdkdEtLp5bWCdpQ0O3KyBgRLzngg/9Cvk6l6Txlt+xdX8xsN03Yane/n0vI7PUljKxCW2E0UhGDhv7vGRkc8/FdtDWYUvBl0+zs/s/8lvDUuIpuoalp0Fta6JfW3qaKPVuoSjKZ4JHYkqzKeQMYAPOO+K+ghDUYZxaz2XezXr9TJtdPYrP55xrFtNbf+BbOJVR3KpnkDA8DnGBXTUpKpScJ+ZWKX3Lbpf4g3y34juLWExSYWJfV2KpJ+pmY5x+wryZfBKcYcE3+v4I0VV3J3WOqrHTLKKW5uhcuxOUt4SjuQeDknhT3B81SfwrxE4w2fa/Is5JHO+q+rbnqA2sslsLZ4CQrxnnHuQO55J/wr1NHolpE43vcylPIzdJ6nPZ9R6M95dpZ2kUhbbIxQMuSSGBOD2A58mo1kcqFTGGUrFoPdEv1B+Il3b9Z6hc6LeyDT7gH0gMHapAwUJA548jHJ9qwo6JT00ITVpLn/hl5VHm8Sq9Z9SXOsatNezLMsLhYo1lwQ+wAEnHc585Ndemo+HTUJc/YpKTZAWcpkdoiqZ3h8sCVX3yP9/HFbyIRYNK12e0ga5tkijZ4ZbeUbNiEd0IP8TjPb2rGVO7xkWUsTHp2qRR3q3t7PcPcBROzjAEsmRhVGP0gf61GD3jtbt9Ct98iZ1vX49TeVLaDZA7CcO+WIfA+kE9gPvVYU8Oos5ZENLcy20eUuJoEbCmJWOWI8jnjtV7JkEjpl9qt3oetSC7uXhhVGV3bLA55GfhecDzXLWqQhWp0u8r/wA/EtG7TIPStRvYZ2eO4eYSKVMTOxyPfb5reaTCZcbbq27trBLcaTHGcBNqNtCr5OPJ/wAq5JUlJ5XNVMg9e6uFxc77VPTWAYEwOGYYyRj2z/Oip4riIyyPqn+j50s/T/Q6X9+hGqawwvJy/wCpVIxGh+y8/djXn1ZZM6IKyOo1mXFAKAUAoBQCgFAKAUAoBQCgFAKAUAoBQCgFAKAUAoBQCgFAKAUAoBQCgFAKAUAoBQCgFAKAUAoBQCgFAU/8Vuj4ut+ir7SSRHd4E1nKf/lzrkoft4PwTQHwFdvd6dqs6XFu8FzA7wTwP3jYEqysPgjtXTTeSM5Ga8RIkt7k/wBpDOp2k8em47g/HOa0pTyvH0KNGC1tnmuDEuAxyARyOASf+vat8iljcm07I2ZRZ413MNw24zgEHP8AnVlMhoz6ZZS3ELyxSRsyEK67hnvwT8fNS5YhIlRot2gWZo0C/qCo/Lc4JHbHPHHb2qFUQxPIt7r8wscQlZ4gWCLk+mvwf/1V1JENEho1lcTSsYrY3S+iWxJhRnJztPk/fFROS+gijSUaxcXUaR6fLG7E7PTj2YPkHjvxir3glzG5oxWs7TstjbO+zLSqEwqd85OcDFXyXmK2JHp/p3U9eQSW+9bKORRJI10FUg4GASeT4x71WdWEPqTGLZZtFuLLQ54ltvVkcXJhljlhCvn+HcScgAjuazmnPqLKyLXadUommxi6WO0ckrcbER3YZJBBye+PGMVg6W/DuXz2IbXOtIILsyFpFUwiJDIvKkckqPBye5ranQbRSUzV0rrWwuLD0r7VriJ4zlYlQyZIIxtOR3/nmrSoOL4UFPYtDa9arorz6ZKlil1CzenNGT9ecYfyN3bOeKx8N54y3sWy24Tjuq6LfW9zcT30cdpC49RTGAQR7AA5A5xzXoRqKXTuYOJq2sMFvp63KTh5WAAhUFGjHlyeQRnj3NXbcniLGTpzT9T16+TTdHgElwwJIztLDOfqP+PPgUnOFJZSIUXPZFsvrLVuiJxaxajp1zIzt69nFOsgU4GHGO24e3tyPNcFahQ16ymmn2l+3uTKLgWbp78RNLg0v09Q9WFnUj0ljLbO+ST5HPivEqfBdSp40rNet/5uXhVUVjIpg6R6jMZePSrhYT9QVNvIbyo3d/8AEV7v/dtFfHxV+fb12KeDUtlYi9UszYSCOaK5W4UkSwbWLxEHBVuOD5yMg12Uq0KiU4NOL5O/Mo4tEtL0j1KIo7i10e+uLeRA6t6YLbSM4IzwceO9cq+JaPeMqiVi3g1PQipbV7NfUvVtWmIysC3QMmPGQpO39+fiumnWVXovb1s7fnzKuOPUYfzqInpWwhiLN6huVYlwP58AfArTFvq/Ag2NZj1IxpHqX5iVVA2l7djtDfp5xzu7g55rOE6d+Fr8S1n5jbk0i80+2s7xdIVoUjxLNqpjVA2eyqG47+eR7VzQ1lKq3GMr/wDqn/g0UbbnsdOz631Lc2lnp0jXUah54o5AlvAmBgtKSTtxzkcn2qKmrVGmnN2vy7t/ReoUG2fj2mlG0k03SPzV96eTPeTsEgjfsBGg7t/xMTgdgKil4zfi1rRfyrd//lL9kQ0rcJoWVlAbuSPV715TbxtJHChLiWT2Ujvk47cnHtXVKWKyjt+xVe56tNO1HUbuaOCzjN1AhLWxIV1DYwSvgDI4rCrrKNGCnN8MvN2/EKDfY3bnQNTis5J9UW3sLGEbiu8MTwcADPPPjPmuaPxOjOahRvKT9v3LulOK32KwMnk/qxjnk/avSbMjofTumo/SEVvI8iJeqZJSh5IJ7fbAxXy+t1U4a1zj5dkdcKfB9SnT6kYbqWO1VI4EJVPpG7GSBk+9e9BNwUpc7GFzSBln3ekXKqMkk8En5zxSTxJSLx+CfQ56265s7e6hL6RZKt5fllwGGTsiP/MR/INXJXq4o2pxufcQAAAAwBXnnQftAKAUAoBQCgFAKAUAoBQCgFAKAUAoBQCgFAKAUAoBQCgFAKAUAoBQCgFAKAUAoBQCgFAKAUAoBQCgFAKAUB8q/wBK78PzYagnXGkwEwTFYtTRBxG/Ajmx88Kfnb/eNWi/KQ0cMnZb/RJGjOdjCUeNvg1FFuFTErJbEdBYXJTfF9LKQSrcEHz/ANe1egpoysblvpbSsGln2sRuGexHGQTng1bMjE3DplzbswiHrxnDYOAe/cfbvVs1Iixt3Wqzx2z20x9eBv1MeTjH1ZHcHjOR3IpGK6g2a0U0tnew3TSnCESwOWYMAD+kMPPir81iQTmi62lrFMZrotsJb+1ILOjZ3An+IeOOQcEVWcLkpmOa71OXfqmkzSRsGBJVx6bADg48E+3vxUpQ6ZEb9Rt6X1derbSTvBbM0Uge4gCCNsZH1L4z59s0lRRKkTMPXF1e21w9lbWrKzAyoYgBG2TgqpGG+c9vFU8BJ8ROZXC8l5cz3V8gE7EiRowV54BPb/Afet+lYxMya03QrPT7Rb5kk9IMUEowxd8jBAPYeMnjNUlUbeJZRsVzVNtxqE73aO7jPpKwBCng5fHJPGMdq3hwrhKMjVlEE26dY0cYYKUAjzntj2q/MqTUGo6zq1zHJbeiBvw1wIyRHgZ/YY5xis3GEEWu5EJr2nyWVw1xPLHIzSZJQjJJAO4jwPGK1hK/CVaNW12/lry4k9RXiAWNQOBuPbOeBjJq77RIRPa2kOjdP6NaafdSC61CE3N3IEaIIM4SP3PYkt5zisoNzm3LkuRd7IqxyHLbyxJ7nJJ+5re5mzdGozxPEIn9IREMuFBKnuSDjj39qq4priBPWfWOu20awwyLcIpLMZB6jvnuGfPIrz63wnS1nlJW+my/AsptEqv4ia65j2zWNusL4ETQEED3Jzkjxk1l/wBl0tuT/EnxGb8/4q6yryelaWatnl0DYxjkgk/5VkvgOn+d/kXdeZXr7rC6urR7aaw04JJJ6rmO2WMMc5BIA5P37/euuHw2nCopxnK6Vupv/gzc8kaC9SXImkaO104b5RMzi3BwQMAD2Ud8e/etZaKm0oyctlbqf8u/X0IuerbXp5bgnUZRfWasJfQkeSOCNs99sZHPjAqz0sIrGlwv1STb+7JTPOprZarf3NxawGws2AEcc8pk2PjkhscAnwPjmr0vEhBRm8peqVvyDs+k3obi50vQbmzs3/L6bL9UquQJLl+wOPb47Y75NU8OE6iqy3kuXshk7exB/nJRY/k43KW5bfJGvAkb3P7cYrosr5FLkt0VpEura0qo8sNvAPUmliOGUeFU+CTxkdhXn/FNXDTUcpJOUtkny+/sjSjDNnV4bW0skKWVvFArfU5QcufJY9yfvXxs61Ss8qrcv2+h6EYJdJVeuLXVb5LdNOt45baMMzAEF95GOAfGPI5zXrfCaumotyqu0nb6WMa8Jy6Sj2OjXd3qMFk8UsDSHLl0IMcfljxwP9a9+trKdOm6t00vfm/Q5o023idNuZBEgjtxsjVAka9ioA4z88V8iry4pc3zO5rFcJzDXLGWxvT+YeN2mzIChz58/NfU6WvCtT4PLscMotPiMDNPMbews4XeWR1RIUyXmlY4Ax7kkDFTKWPEWSy4T7d/BvodOhOjLewl2vqc5FxfSjndKQPpB/uqAFH2z5rzak83kdcVZF8qhIoBQCgFAKAUAoBQCgFAKAUAoBQCgFAKAUAoBQCgFAKAUAoBQCgFAKAUAoBQCgFAKAUAoBQCgFAKAUAoBQCgNPVtOtNW0y60/UYVuLO5jMU0TdnU8EGgPg/r/ou7/DXrO60a8LTaZcAy2c5HEsJPY+Ny9iP37EVEn5iLFRupns2MYfc8bDBJyGXx/tXbB5GTRrQl95kBK5bICnz8f7GtkyhJxtK6rHJJtwDtcNgk9+T/AIVNyDYtp7tD/alLlBwVkwew5KsDmrbA2fzumzSSRzerApAYO+SgfHBYe3z4NLMbGC5s9MmQG3uLfeVzhmMZB+T5PPmrqTIsYRo+pIiGGR2ilyN8bEowxnx9u1XzRFmfqx3tmjtLZ732j60JDIoBByMcg571N1LuLG3b3MsFoZgnpQySBigG0lgP1d/8exqLZMgt2jpo12sV2Jbwoyj1IXC8kAgZIPA54NYyc48JdJF5trayurcPeZSGD6UduGAwCVPuPPPNc7k10mlkeOpul9E1BJm0nT431Z0CszSbAvHDZPGT/Kpp1px6nsRKCfTzKPo8PTdu0tprMU0V6N6yuGJdyP1BG8HjtxmuqTqS4o8jNW8xY7HUdM0+0WDRNPuZLiJzLFKWJRsg5LtjBbvkHkCsnGbfGyyaj0lDm0uO4uvWtLS4t7S/kdopcLKdgJyAM5+o5HvXUp4rie6M7EFqTF5IYAQI2jLr9J+k8gnOct27n2raPzFGeNYvkuo7dYgwMaBSzADJxyAM8DP/AFmphGwbI/dgKSMOOxzwB9verkHktwMHg98cfyoQeQSG3KxXByDnFCTbWR5mHqyEtgDLH57k+B81APVwlzGiPMT6bgbSDkN3wAaJoGzZGwkz/WMsiJsKq8Lgsp4IwntjI796rJvykpI0UUzRSiGJWZQSTvO7bnvjPPtxVrkWPMLINpfJUchDzk/NGCTTUlOmSWaQbN5yXXAJ9hn2quO+RDew0nTrnVtQjt7dXeRyN8mCwjHYsx9qy1Gop6am5zey/P2JhBzeMTpNp0ZpEGmS206fmbhlIa7YkFTzyg/hHxzmvlanxnUzqqcOGK8v+fU9CGmhjjIk9C0qy0i0aLTjN6c+JG9ViTnGA2McfauTWaqrqZ5VbXjtt+hpTpQguE2yxkdlQbc8AnuR8Vz2sS0YpVKgEsMYyfFXTJSMTXG+MqSQO3+NWURYirkj1vpBJPj3roiikkisdaLFBBG8hHrhyoUD9Rxzz7CvV0Kabj2Oaokdb/ou/hw08q9ca5FlfqXTIpAck9muCP5qvxk/3TWlepfZF4RxPpyuc0FAKAUAoBQCgFAKAUAoBQCgFAKAUAoBQCgFAKAUAoBQCgFAKAUAoBQCgFAKAUAoBQCgFAKAUAoBQCgFAKAUAoBQFK/FfoOz/EDpaXTZ2WC+iPq2V3tyYJccH5U9mHkfIFAfDHU2lXmk395pWsWv5fUrJzHJGe6HGcg+VI5BGQRzWlJ22KSRB20qj6XxtXJyeCR7GupMzJaNim5QAVyAT3BHwf8AoGrJkWM8UGcKh2OfqB75P+h+1WyIsfqRDeFdgTnIByQT8fPwe9XuRYyNp1tLGrbY4c52oOS5/ug55PzxUqbFjFFbXFpNmzllhRyMGJ8Anzlc8Y7Va6l1EG2s+oxyq1vqMiDYdqPtAIHByeRnPv3pt6Dc2mF7N9T/AJWWQxgCKVCBHyMgD288ec0TSBJW6W9iFuY7S5tghZpAr+ojj+KPODzzke4qt3LhJsXPRNUsbmzezEgukJEhR+HAPOAf4u3j2xWE4uLyLposq6jHbRIgWPa3GVXBYY7HNZY5Frle6r6Zj6imjk3+l6zD6gQAGxgY9zx2NbUq3hlZQyJDSOidJsURWh/OWyrtkEm6Jd/vgHk/BqstROXsSqaIDrrp+yk1fT/zMLQ6Sw2yXUJ9S5AwcggAgAkYBAGBW1Gq7P1/IpKKuc11yweJo9SghDaTOcQvG3AUHG1j3DeMnuea7IT8vcya7kLkbmYLkc4B5x961Kn68TrAk7L9DsVByOSAMjH7ilyLHkZPLHapzgntmlwe7ZPVmVdyIp7ljgAfejYPQmRArJkvnOSARj7UBlur6WeMK4j4zgjGRyScDsP2FQliTc0iasQOeD7cg1AM6Rs31MDz5PmhBNdN6Q+tapHZRyCJdpeRzyVUEZIHk81ya3VrR0nVkr9l9S9Km6k8Tp/S2hRaLZ5wFvpF2Tujkq4BOOPHjtXyfxDXz1k/9K3W3LY9CjQ8P6kkZgvnGPauPE6rGCSbPPcmrqJCRgebn/T2q9iGYmuAAVZvqNWUSLGG3X1WkmmPp28ZxnyT9vauqnSTWUis3iDNBCzXG7kLwWIAUe9dEIqJzyZ5/DLoSf8AFTrR7q7WSLpXTHCTv2/MNnJiX5buxHYcdyK67+HDHuykVd5H2PbwxW0EcMEaxQxqEREACqoGAAB2HjFYGpmoBQCgFAKAUAoBQCgFAKAUAoBQCgFAKAUAoBQCgFAKAUAoBQCgFAKAUAoBQCgFAKAUAoBQCgFAKAUAoBQCgFAKAUAoDk347/hPD19pg1DSvTt+prND+XmPAnXv6Tn29iex+CalOxFj4k1DTbuxuriO5tpILi3kMdxBIpDxODyrD/Wt4zKNH7azFl2htq9yB3UfHx8VqmVJazmeVWRCXRAAFUjtj2q1yD3ON4DHhQNrFicE+MjP+NXTKsQO67/SkRwcHOzJPxnwvz2q4My2oeQsQQVIODgbT8fzpkRYTWMgwuPURudq8ee+Pf7VKkLGW1tb+NC0JJReMNknPcD4+4qXJEWZvQ6xf2GRcrlQO+SCvxnFRimTdmebUoJZY5pIZYGyGWSJc4574HfvRRYuSlprOpPZhYbmG8txlTkAMT4DKe5qrhC/oLs3dH6ta3n9HU1EVvL9LJIp2BvcHx+9RKll0kqfzFtfVoZbVRHdRM8f05LgA+cZ9+PNYKLuXuZLa+ivgsEs2y7bLRAuAXPgAjscc8Uat9Be5Isttc2DQPBataxkGS0kgRhIQOVbjn7jBqt2nkScu6q/DURQ/munpt6BXlktpSS6LnI2sBggZx7+9dtLVeWZlKn6FI1i6um03T9OntY4V0wyRllXDuztklj+2BXTBK7l6mb+U07AFy0fBckemHbAVvJP7DFWkyEa7q0UzpIpV1YgjOcHPvVrkHnnGQDxzmpAGf51FyDNt80uD2IxjJOB5qSCY0vQdS1JVa0tXMJO0TSEInzyf9K49RrtPQ4Zz39FuzWnQqVOlHQ+nNKt+n7Jk3xy3knMs4GDjwq+y/518xrtZPWT9Irkv3fv+h6tDTqmvc3Zrwn9LkVyqB04o12unLYH6s96tiVaPRm2jnH3pYykzVmuyfojyzngDH+tXUCYx+Y1pHaJCvG8ttI78+wrVIhtGtJduwCs+FH1BfH3NaXMZOxsdH9M6p+JnUf9UaU7wadBg6hfgZWFP7qny7Y4H79ga66ccOOXPsc/X9D7G6W6e03pfQrTSNEtlt7G1TaiAck+WY+WJ5J8mobuaExQCgFAKAUAoBQCgFAKAUAoBQCgFAKAUAoBQCgFAKAUAoBQCgFAKAUAoBQCgFAKAUAoBQCgFAKAUAoBQCgFAKAUAoBQCgFAcg/G/wDCWPrK3fWOn/TteqII9u48JeIBxHJ/xeFbx2PHaUwfHWoWHp301pcwPpurWzmKW3nBQbh/Cf7p9vFaxkUaNa3u5LK7KXCFHX6WVhgn71suIoTizIwWVCGjI7g1KYMkiwTKNmAByUfI/masmyGjII5UXEJ4xu2pjn96tcix5jkWKU+qSjNxzkEnPv7+KsQTVtOgQFZsFhwCxB/n/pVCTciv4hCRcyRyKuVBkII7dseaWJuYzpuncy2sslm/cmHlCcHOU5HntU5vzbkWRHPo9yC7WrRXiE97dhE+cZAK/pz9q0VRebYq4mvM80EwimuJERh/4OoQ7QRnsG5BOfarKz/2IMFxPGsauYri0YZJ4JDfIPt8VZAxxaq9pMfy9xHIykOnpkuvPcEY7/I7VOORFy66H1zBcTrDfKkBKAN6jEo758N4GR2PmuedBrpNFMs83WFrGsf5hjFAxBGxcqfHJHj5HIrJUWWzPzqrR9M6psBKjx2U8bGY3cZDB8/qJIP+Y+aUqk6b9RKKZyjV+k/6vkMnrSXOnMhkiubYCRNo7kn2+cV3QrX+pi4WK61rzBiQMsmMOvI+Bj3+K2yK2MXpTxMco6sjEEEHOfPFLkWCuvPGCx+9TcixN6JoN7qjI8aiKBgWE0mduAcED3Oa49Vr6Wm6t5eiNqWnnV6eRd7DQ9I06OP1Io5p1IYzTDcc+4HYD4xXz1b4jqaze+MfRHow01OHSrkpPc+puJkyBxjz7iuGMcTdNs1GnJxtUEk9/NaJGh5DHdkkDI5AoUcj8knjjXlgSe2PerKJS7ZqS3o3BAOW+ewq6gLHlboQbn7uRhc9gfetEisjVlmLuNoIwOPv5Iq1jOUsTf6J6Q1b8QtYbTNFJhsomH9Yaky5jgH91R/E+Oy/zwOa6KdPHil9jne59g9GdLaV0boFvo+hW/o2sX1MzcvK5xl3b+Jjjk/sMAAVdu5axP1AFAKAUAoBQCgFAKAUAoBQCgFAKAUAoBQCgFAKAUAoBQCgFAKAUAoBQCgFAKAUAoBQCgFAKAUAoBQCgFAKAUAoBQCgFAKAUAoDln4z/hDpf4iWn5uFk0/qGFNsN6FyJB4jlH8S/Pde4yMgynYHx11Ho19oOrSaD1dZtZahAAElYZBX+Flb+JePt44NaRl8pVohLm2utLKsWBib9MiHKt9/atozTKNWNmx1EPIFuDtXHDZxg+P2q5Uk7S+tpDhieOMjv/7VO4N2FyzYEqyRsedxAIpcG3GURVV1jZM8Dk/vipuDYNtauAXt4mB5Bxwpz3HxTKQsZH0yOX6obqa3l28mPGPng96lTIsaaSX1hOFWRGye6rjI8nPvV9pEbm5c6tO9sY3jjdTkFZOQfcg1Ciri5GicJb7VkljAyoSYmRF578cirkGpIthOjR6nALSUZ2zWw3Jjvkjx/KrJvykbGGTQJdiSWbJcqRwAeGHn9v8AGrKp8xGJHM1xbR+lJHMsBBGxieDnuD4/yq+0gSuidQXunMHjncQN9JGAQR4BHv8AbFUnBSCeJe+lr2xuI7j8l/3aaYZdBgBD7qOwHjI8d65qiceo0jY3rvobR9QupLuOKKGcqMQElEzjkqB3zxjxVVqJxWJOCKDqVheWUky3UsiTt9CrMoDsADyGxycee5FdUZp9Jk0zQ0zSBKy8hmfJUt2xxz/LnFXlUxK2Ok6PHbQaXbwwx7ViyGBBznuTnPvz9q+b1UXKs5T3v+nY9Wg0qajEy6ta2ksaSWzhXK5AJOP3rKUV5TaM3HqMel6SbkZe4Qc7SM+fcikKVys6uJ+yaXIsyxwqWyCxYjA2g96eE74lfE2NK6spd5EAdyCFLY4PHijhiPEREahNb2jhLq7iR8Z2lsn+VaQo1J9MGyrrwXUzV/MWhgF0ZQ8LEqoHdj7AVZUainhbcq9QrcJnLCSNSpBULuLE8fzqqg23GJm5+YtX4c/h1qf4h3QaGWWx6bRiLjUAMPMQeUhz3PgtjA+TxXTGChz5lOZ9Y9L9P6Z0votvpWh2kdpYwDCxp5PlmJ5Zj3JPJo2WJegFAKAUAoBQCgFAKAUAoBQCgFAKAUAoBQCgFAKAUAoBQCgFAKAUAoBQCgFAKAUAoBQCgFAKAUAoBQCgFAKAUAoBQCgFAKAUAoBQCgKr+IPQuhde6KdP1+13gZMNxGds0Df3kbx9jkHyDUpg+PPxH/DLqX8M55JLhP616bdsJdomVUeBIv8AAf3wfB8VdO5WxR2sbDUI9+nP+Xn8wyHCsfg+K0U3HqKuJGywz6fcBZkKOpDYI4Izxz5FbKSkUaJC2vxLgZ9M7ssoA2gfBqQbILMG2sGTnD5yR9x4qbkWMyNKECQEEoNxH6cjPJPv3qbg/Yr197+ikvqkFiTITgj2/f3qxBnF9mNXluo1bKqRMpjfnknscj5pYHuSddwXd6hUjARg2T8HyKsQPzqBcqropOxhgY+QT/tUWB4gVxvUbyhwDtPGM9iParNgzQ2Id2Te8blQyyhiqo2e5FRkLH6bi5y8F4YZoxgKWIJz2AJz3qduqINPUrGyMha0l2M4GUGSGPx8fFWjN+Yhow2dxPpMuWYrJu2iIAk4xwQRxn/GpdphbErp/U+o6dO6k70Y7jHIchPcHyD9qpKmmSpNHnqbqYatKjje8bAb7eQlkB914449qU6eAlK5qWly++RUTYysFLpkxYz2I/1qzIOhdKSve6O8EkgkeB9qscglfAIPbByK8fWUrVMo9zqozdjdiK2cdwrIH9X6SCMhR4NckeH7m0pXPEbSae6TqBIEAaRB2YHOMH3GatGOHEUlO5LQaiJ0Zg24jvjsDjtn/auuMX5jO5palOJLWSGKZIBgqXUZKjz+9XjFLsQ2cpv9FkQzzJOjqDkMe7AngkY/w712eKY4GCPSp2ZFlm2wSOEjRAWklJPCqoHJPsOTVJVV1dyVA+i/wv8AwSn1CODUeuIZLezUBodJLYdxjvOR+kf8A59z4rjbt0myifRVtbw2tvHBbRJDDGoRI41CqijsAB2HxVSxmoBQCgFAKAUAoBQCgFAKAUAoBQCgFAKAUAoBQCgFAKAUAoBQCgFAKAUAoBQCgFAKAUAoBQCgFAKAUAoBQCgFAKAUAoBQCgFAKAUAoBQCgMU8MdxDJDPGskUilXRwCGBGCCPI+KA+efxP/o5WV8ZtR6CeLT7o5ZtOmJ/LyHzsbkxn45X/AJRVlIho+ddWttZ6Wv20rqfTJYZE59C7XGR2yjdmHypIq6ZBpCxsr9jJps/5eY8m3m4z/wArVopuPUVcTVuoJ7farxm2uAcADhZBjx81pGZVowC/myocklBtGe61dFTbS5NxJuSURsmFUFSQR7Y8ip6QSBcJEf6zIVRggFQ2F9lGO3we1Rf5QeUeKGJlt5ZdhO6SKJgRgnAwce3kVa5AM4iUSxBiqsVDA8554x3JqQbizpv2R3AWONQ8gddpUcAjPk81APMkbg+q0iNDndhuQxx/EOM/tUqQse0b0UaIFEjkHqOY1Vyoxndj+HkY4pcg83MEkkUc1tcSPMmS6LgAt5xxwalSJsa1yWMMZvluWkIwiYJCkHB2nx57cHzUp/KQaX5JdzjbJt7gnHHweeT27VbMixL6fbQRQenJCGuVVmyxG0nwQT/kKpKTLJGybUyTyTQJsAjCukZA3Lgc48nPPzVchYs+iRw6eGu55o4TsEZXkAAnOT7n/KuWvnV4Yl48PEbsuuiOBpIrU3KDJ38AY88eP3FZU6Hzl3M016qii09JZYtk0jBRByvHbdyO3zWvhK/CVyPMl/c3USqswRAORDhB9gSO32ptEEfNcxW1sU/MFFAy5did3kkk+KNk2Jbo7orqj8QZ1/qO1NvpO76tUu1KQ4/4B3c/8oxnuRVXOxOJ9Lfht+FWhdDql1EG1DWiu19RuQN+PIRe0a/C8nyTWTdyyR0OoJFAKAUAoBQCgFAKAUAoBQCgFAKAUAoBQCgFAKAUAoBQCgFAKAUAoBQCgFAKAUAoBQCgFAKAUAoBQCgFAKAUAoBQCgFAKAUAoBQCgFAKAUAoBQCgIbqfpnRuqdNaw6h0221C1bJCTLkqfdW7qfkEGgPnP8Qf6MssYkuuhL/1FBLDT75sMPOEl7H7OP8AzVdSIscQ1i26g6TvBpvVel3MAOcR3keAwHco3IYfKk1N0Qa5t9G1Pabeb8tOf4ScZ+OaupuJFkaV1od7ancg3qOQ6nBrVVVIo4nmK+uYYCtzG7x5wHYZx8E+1W2IM8UtnKvrwf2Tx5Lo+cODn/D5FTdix7iWAyDfD9ZUMu5gVPyCvOPHxU5CxmihMll6loJHmGfklc9gfP7imW/ERY8xSD1HTEgA+pdqgkHHkEe1TcGxBcxM+JiAuCqhxuO7GCxPt96hgz201lDOWluSyhSMhSQCBwBx/wC9G2Dak1KxvFQzsm9TtjKggjjBI9vsarZok2tNm0yzSMTzI8q8B9hIxjucDv8ANRJuRKsZbs6JrLpI1zF68bBlljfBHwcjkfFQnOA2ZmN9Halvy89vJGAdwwCSTx2xx/Kq9RJotq6GXfFZhu4YlyCR8DzU29yDUOvN6m1XubZRjCoPUJPyfbFLC5pz9QujOwQpGxwXdcHPwcnFQ7Fi79F9Eda9ZpFJpWmPb2kmP/iF7mGID3XI3P8A+UY+ayckSkd46G/AXp/RXju+pZD1DqKkMBcLi3Q/8MXO77uT9hVHJlkjsMaLFGqRqERQAqqMAD2FVJMlAKAUAoBQCgFAKAUAoBQCgFAKAUAoBQCgFAKAUAoBQCgFAKAUAoBQCgFAKAUAoBQCgFAKAUAoBQCgFAKAUAoBQCgFAKAUAoBQCgFAKAUAoBQCgFAKAUAoDT1PTbHVrJ7TVLO2vbR/1w3EayI33U5FAcZ6x/o2dH6y7z6I91oN0eR6B9WHPuY25/ZWAqykyLHItd/AX8Rem2Z9FktNctByFhkCPj5R8fyUmpyTFjneqNfaRN6PU+g32lTE4JlgaMN+xHP+NTcixofk7K8bdZEf8Lxtyp+RV1UZGJptYvb3R3TouMkuOCPnGK0VS5XE2IYJIQz217sLYwV4B+x96Zix623UaFmd3VsqHjcBs/PvU5IixqtGyKz3Mxt2P0gAZOPkVbMixgEsK4WL1ZWPcPwCfjnipyFiQhhd3V7qSKNcbVRcEAY4zVcybG/ZWtuwZgxbBOcMQP2qrmSomzdJtTKlAqjguST+4AquZNiKlvkjykhG5v4RnLeO1MiLFi6f6J6v6nZTovS19OjcCaZDDF/63Kg/tVXUJxOqdMf0bNevSr9Ua1Z6bAeTb6enqyH4LthQfkZqjqMtido6M/BzovpNkms9KW8vlxi71A+vLn3GRtU/8oFUbJsdEqCRQCgFAKAUAoBQCgFAKAUAoBQCgFAKAUAoBQCgFAKAUAoBQCgFAKAUAoBQCgFAKAUAoBQCgFAKAUAoBQCgFAKAUAoBQCgFAKAUAoBQCgFAKAUAoBQCgFAKAUAoBQCgFAYriGK4haK4ijliYYZHUMCPkGgKNrv4QdBa47Pe9MWCynvJaqbds++YytTcFQ1H+jh0nOr/AJHUNasyeApuFmRfsHUn/GlyLFTvP6LUSjOndUyI3cCSzwM/+Vx/lU5sWIib+jF1EpPo9SaZIPBkgkU/5mpzFjBcf0Zuq5//ABNZ0N+MZJlBx/6aKZGJhi/ovdUIx/8AjOg7T2yJiR/9oqfEYxJey/oza3wLvqPS0Hn07N3P8ywqM2TYsNh/RnsUdTqHVF/Kn8SW9tHED+53VGQsWnTf6PvQloQbq21HUfcXd65U/sm0VFxYvXT/AEV0z06ijRdB02yIOQ8Vuu/P/NjJ/nUElioBQCgFAKAUAoBQCgFAKAUAoBQCgFAKAUAoBQCgFAKAUAoBQCgFAKAUAoBQCgFAKAUAoBQCgFAKAUAoBQCgFAKAUAoBQCgFAKAUAoBQCgFAKAUAoBQCgFAKAUAoBQCgFAKAZFAMigGRQH5kUAyKAbqAbqAbqAbqAbqAbqA/cigGRQDIoBkUAzQCgFAKAUAoBQCgFAKAUAoBQCgFAKAUAoBQCgFAKAUAoBQCgFAKAUAoBQCgFAKAUAoBQCgFAKAUAoBQCgFAKAUAoBQCgFAKAUAoBQCgFAKAUAoBQCgFAKAUAoD8oD8oDzQCgPzNAftAec0AzQH5mgGaAZoBmgGaA/c0AzQH7mgGaAZPvQH7QHqgFAfooD9oBQCgFAKAUAoBQCgFAKAUAoBQCgFAKAUAoBQCgFAKAUAoBQCgFAKAUAoD/9k=;" parent="1" vertex="1">
          <mxGeometry x="360" y="367.5" width="154" height="85" as="geometry" />
        </mxCell>
        <mxCell id="HDMQ9oWZRbvWbr3XCpym-1" value="$$H_1$$" style="whiteSpace=wrap;html=1;aspect=fixed;strokeWidth=2;" parent="1" vertex="1">
          <mxGeometry x="80" y="40" width="40" height="40" as="geometry" />
        </mxCell>
        <mxCell id="HDMQ9oWZRbvWbr3XCpym-2" value="$$H_2$$" style="whiteSpace=wrap;html=1;aspect=fixed;strokeWidth=2;" parent="1" vertex="1">
          <mxGeometry x="160" y="40" width="40" height="40" as="geometry" />
        </mxCell>
        <mxCell id="HDMQ9oWZRbvWbr3XCpym-3" value="$$H_3$$" style="whiteSpace=wrap;html=1;aspect=fixed;strokeWidth=2;" parent="1" vertex="1">
          <mxGeometry x="240" y="40" width="40" height="40" as="geometry" />
        </mxCell>
        <mxCell id="HDMQ9oWZRbvWbr3XCpym-5" value="$$H_4$$" style="whiteSpace=wrap;html=1;aspect=fixed;strokeWidth=2;" parent="1" vertex="1">
          <mxGeometry x="320" y="40" width="40" height="40" as="geometry" />
        </mxCell>
        <mxCell id="HDMQ9oWZRbvWbr3XCpym-6" value="$$H_5$$" style="whiteSpace=wrap;html=1;aspect=fixed;strokeWidth=2;" parent="1" vertex="1">
          <mxGeometry x="400" y="40" width="40" height="40" as="geometry" />
        </mxCell>
        <mxCell id="HDMQ9oWZRbvWbr3XCpym-7" value="$$H_6$$" style="whiteSpace=wrap;html=1;aspect=fixed;strokeWidth=2;" parent="1" vertex="1">
          <mxGeometry x="480" y="40" width="40" height="40" as="geometry" />
        </mxCell>
        <mxCell id="HDMQ9oWZRbvWbr3XCpym-10" value="" style="endArrow=none;html=1;strokeWidth=1;entryX=0.5;entryY=1;entryDx=0;entryDy=0;exitX=0.5;exitY=0;exitDx=0;exitDy=0;" parent="1" source="HDMQ9oWZRbvWbr3XCpym-28" target="HDMQ9oWZRbvWbr3XCpym-1" edge="1">
          <mxGeometry width="50" height="50" relative="1" as="geometry">
            <mxPoint x="100" y="120" as="sourcePoint" />
            <mxPoint x="100" y="80" as="targetPoint" />
          </mxGeometry>
        </mxCell>
        <mxCell id="HDMQ9oWZRbvWbr3XCpym-11" value="" style="endArrow=none;html=1;strokeWidth=1;entryX=0.5;entryY=1;entryDx=0;entryDy=0;exitX=0.5;exitY=0;exitDx=0;exitDy=0;" parent="1" source="HDMQ9oWZRbvWbr3XCpym-29" edge="1">
          <mxGeometry width="50" height="50" relative="1" as="geometry">
            <mxPoint x="180" y="120" as="sourcePoint" />
            <mxPoint x="179.5" y="80" as="targetPoint" />
          </mxGeometry>
        </mxCell>
        <mxCell id="HDMQ9oWZRbvWbr3XCpym-13" value="" style="endArrow=none;html=1;strokeWidth=1;entryX=0.5;entryY=1;entryDx=0;entryDy=0;exitX=0.5;exitY=0;exitDx=0;exitDy=0;" parent="1" source="HDMQ9oWZRbvWbr3XCpym-30" edge="1">
          <mxGeometry width="50" height="50" relative="1" as="geometry">
            <mxPoint x="260" y="120" as="sourcePoint" />
            <mxPoint x="259.5" y="80" as="targetPoint" />
          </mxGeometry>
        </mxCell>
        <mxCell id="HDMQ9oWZRbvWbr3XCpym-14" value="" style="endArrow=none;html=1;strokeWidth=1;entryX=0.5;entryY=1;entryDx=0;entryDy=0;exitX=0.5;exitY=0;exitDx=0;exitDy=0;" parent="1" source="HDMQ9oWZRbvWbr3XCpym-33" edge="1">
          <mxGeometry width="50" height="50" relative="1" as="geometry">
            <mxPoint x="340.5" y="120" as="sourcePoint" />
            <mxPoint x="340" y="80" as="targetPoint" />
          </mxGeometry>
        </mxCell>
        <mxCell id="HDMQ9oWZRbvWbr3XCpym-15" value="" style="endArrow=none;html=1;strokeWidth=1;entryX=0.5;entryY=1;entryDx=0;entryDy=0;exitX=0.5;exitY=0;exitDx=0;exitDy=0;" parent="1" source="HDMQ9oWZRbvWbr3XCpym-36" edge="1">
          <mxGeometry width="50" height="50" relative="1" as="geometry">
            <mxPoint x="420" y="120" as="sourcePoint" />
            <mxPoint x="419.5" y="80" as="targetPoint" />
          </mxGeometry>
        </mxCell>
        <mxCell id="HDMQ9oWZRbvWbr3XCpym-16" value="" style="endArrow=none;html=1;strokeWidth=1;entryX=0.5;entryY=1;entryDx=0;entryDy=0;exitX=0.5;exitY=0;exitDx=0;exitDy=0;" parent="1" source="HDMQ9oWZRbvWbr3XCpym-37" edge="1">
          <mxGeometry width="50" height="50" relative="1" as="geometry">
            <mxPoint x="500" y="120" as="sourcePoint" />
            <mxPoint x="499.5" y="80" as="targetPoint" />
          </mxGeometry>
        </mxCell>
        <mxCell id="HDMQ9oWZRbvWbr3XCpym-21" value="&lt;p class=&quot;p1&quot; style=&quot;margin: 0px ; font-stretch: normal ; line-height: normal ; font-size: 11px&quot;&gt;&lt;span class=&quot;s1&quot; style=&quot;background-color: rgb(255 , 255 , 255)&quot;&gt;&lt;font face=&quot;Courier New&quot;&gt;b8:69:f4:c5:3c:97&lt;/font&gt;&lt;/span&gt;&lt;/p&gt;" style="text;html=1;strokeColor=none;fillColor=none;align=center;verticalAlign=middle;whiteSpace=wrap;rounded=0;rotation=-90;" parent="1" vertex="1">
          <mxGeometry x="70" y="130" width="40" height="20" as="geometry" />
        </mxCell>
        <mxCell id="HDMQ9oWZRbvWbr3XCpym-26" value="&lt;p class=&quot;p1&quot; style=&quot;margin: 0px ; font-stretch: normal ; line-height: normal ; font-size: 11px&quot;&gt;&lt;span style=&quot;font-family: &amp;#34;courier new&amp;#34; ; background-color: rgb(255 , 255 , 255)&quot;&gt;5c:f3:70:5a:a8:6e&lt;/span&gt;&lt;/p&gt;" style="text;html=1;strokeColor=none;fillColor=none;align=center;verticalAlign=middle;whiteSpace=wrap;rounded=0;rotation=-90;" parent="1" vertex="1">
          <mxGeometry x="470" y="130" width="40" height="20" as="geometry" />
        </mxCell>
        <mxCell id="HDMQ9oWZRbvWbr3XCpym-40" value="&lt;font style=&quot;font-size: 10px&quot;&gt;&lt;font style=&quot;font-size: 10px&quot;&gt;Port MAC&lt;br&gt;---- ----------------&lt;br&gt;1&amp;nbsp; &amp;nbsp;&amp;nbsp;&lt;/font&gt;&lt;span style=&quot;text-align: center&quot;&gt;b8:69:f4:c5:3c:97&lt;/span&gt;&lt;font style=&quot;font-size: 10px&quot;&gt;&lt;br&gt;&lt;/font&gt;&lt;font style=&quot;font-size: 10px&quot;&gt;...&lt;br&gt;6&amp;nbsp; &amp;nbsp;&amp;nbsp;&lt;/font&gt;&lt;span style=&quot;text-align: center&quot;&gt;5c:f3:70:5a:a8:6e&lt;br&gt;&lt;/span&gt;&lt;font style=&quot;font-size: 10px&quot;&gt;0&amp;nbsp; &amp;nbsp;&amp;nbsp;&lt;/font&gt;&lt;span style=&quot;text-align: center&quot;&gt;d4:ca:6d:f8:6e:7e&lt;br&gt;&lt;/span&gt;&lt;/font&gt;" style="text;html=1;strokeColor=none;fillColor=none;align=left;verticalAlign=middle;whiteSpace=wrap;rounded=0;fontFamily=Courier New;fontSize=9;labelBackgroundColor=#ffffff;" parent="1" vertex="1">
          <mxGeometry x="70" y="290" width="270" height="20" as="geometry" />
        </mxCell>
        <mxCell id="HDMQ9oWZRbvWbr3XCpym-51" value="CAM&lt;br&gt;Table" style="text;html=1;strokeColor=none;fillColor=none;align=right;verticalAlign=middle;whiteSpace=wrap;rounded=0;fontFamily=Verdana;fontSize=12;" parent="1" vertex="1">
          <mxGeometry x="28" y="268" width="40" height="20" as="geometry" />
        </mxCell>
        <mxCell id="HDMQ9oWZRbvWbr3XCpym-27" value="" style="rounded=0;whiteSpace=wrap;html=1;strokeWidth=2;" parent="1" vertex="1">
          <mxGeometry x="70" y="220" width="540" height="30" as="geometry" />
        </mxCell>
        <mxCell id="HDMQ9oWZRbvWbr3XCpym-28" value="&lt;font style=&quot;font-size: 9px&quot; face=&quot;Verdana&quot;&gt;1&lt;/font&gt;" style="whiteSpace=wrap;html=1;aspect=fixed;strokeWidth=2;" parent="1" vertex="1">
          <mxGeometry x="95" y="230" width="10" height="10" as="geometry" />
        </mxCell>
        <mxCell id="HDMQ9oWZRbvWbr3XCpym-29" value="2" style="whiteSpace=wrap;html=1;aspect=fixed;strokeWidth=2;fontFamily=Verdana;fontSize=9;" parent="1" vertex="1">
          <mxGeometry x="175" y="230" width="10" height="10" as="geometry" />
        </mxCell>
        <mxCell id="HDMQ9oWZRbvWbr3XCpym-30" value="3" style="whiteSpace=wrap;html=1;aspect=fixed;strokeWidth=2;fontFamily=Verdana;fontSize=9;" parent="1" vertex="1">
          <mxGeometry x="255" y="230" width="10" height="10" as="geometry" />
        </mxCell>
        <mxCell id="HDMQ9oWZRbvWbr3XCpym-33" value="4" style="whiteSpace=wrap;html=1;aspect=fixed;strokeWidth=2;fontFamily=Verdana;fontSize=9;" parent="1" vertex="1">
          <mxGeometry x="335" y="230" width="10" height="10" as="geometry" />
        </mxCell>
        <mxCell id="HDMQ9oWZRbvWbr3XCpym-36" value="5" style="whiteSpace=wrap;html=1;aspect=fixed;strokeWidth=2;fontFamily=Verdana;fontSize=9;" parent="1" vertex="1">
          <mxGeometry x="415" y="230" width="10" height="10" as="geometry" />
        </mxCell>
        <mxCell id="HDMQ9oWZRbvWbr3XCpym-37" value="6" style="whiteSpace=wrap;html=1;aspect=fixed;strokeWidth=2;fontFamily=Verdana;fontSize=9;" parent="1" vertex="1">
          <mxGeometry x="495" y="230" width="10" height="10" as="geometry" />
        </mxCell>
        <mxCell id="HDMQ9oWZRbvWbr3XCpym-38" value="&lt;font face=&quot;Verdana&quot;&gt;L2&lt;br&gt;&lt;div style=&quot;&quot;&gt;&lt;span&gt;Switch&lt;/span&gt;&lt;/div&gt;&lt;/font&gt;" style="text;html=1;strokeColor=none;fillColor=none;align=right;verticalAlign=middle;whiteSpace=wrap;rounded=0;" parent="1" vertex="1">
          <mxGeometry x="28" y="225" width="40" height="20" as="geometry" />
        </mxCell>
        <mxCell id="HDMQ9oWZRbvWbr3XCpym-53" value="0" style="whiteSpace=wrap;html=1;aspect=fixed;strokeWidth=2;fontFamily=Verdana;fontSize=9;" parent="1" vertex="1">
          <mxGeometry x="570" y="230" width="10" height="10" as="geometry" />
        </mxCell>
        <mxCell id="HDMQ9oWZRbvWbr3XCpym-54" value="$$GW_1$$" style="whiteSpace=wrap;html=1;aspect=fixed;strokeWidth=2;" parent="1" vertex="1">
          <mxGeometry x="555" y="390" width="40" height="40" as="geometry" />
        </mxCell>
        <mxCell id="HDMQ9oWZRbvWbr3XCpym-55" value="" style="endArrow=none;html=1;strokeWidth=1;entryX=0.5;entryY=1;entryDx=0;entryDy=0;exitX=0.5;exitY=0;exitDx=0;exitDy=0;" parent="1" edge="1">
          <mxGeometry width="50" height="50" relative="1" as="geometry">
            <mxPoint x="575" y="390" as="sourcePoint" />
            <mxPoint x="574.5" y="240" as="targetPoint" />
          </mxGeometry>
        </mxCell>
        <mxCell id="HDMQ9oWZRbvWbr3XCpym-56" value="&lt;p class=&quot;p1&quot; style=&quot;font-family: &amp;#34;helvetica&amp;#34; ; margin: 0px ; font-stretch: normal ; line-height: normal ; font-size: 11px&quot;&gt;&lt;span class=&quot;s1&quot; style=&quot;background-color: rgb(255 , 255 , 255)&quot;&gt;&lt;font face=&quot;Courier New&quot;&gt;d4:ca:6d:f8:6e:7e&lt;/font&gt;&lt;/span&gt;&lt;/p&gt;&lt;div&gt;&lt;span class=&quot;s1&quot; style=&quot;background-color: rgb(255 , 255 , 255)&quot;&gt;&lt;font face=&quot;Courier New&quot;&gt;&lt;br&gt;&lt;/font&gt;&lt;/span&gt;&lt;/div&gt;" style="text;html=1;align=center;verticalAlign=middle;resizable=0;points=[];autosize=1;fontSize=12;fontFamily=Verdana;rotation=-90;" parent="1" vertex="1">
          <mxGeometry x="505" y="310" width="130" height="30" as="geometry" />
        </mxCell>
        <mxCell id="HDMQ9oWZRbvWbr3XCpym-57" value="" style="endArrow=classic;html=1;strokeWidth=1;fontFamily=Courier New;fontSize=12;fontColor=#000000;exitX=0;exitY=0.5;exitDx=0;exitDy=0;" parent="1" source="HDMQ9oWZRbvWbr3XCpym-54" edge="1">
          <mxGeometry width="50" height="50" relative="1" as="geometry">
            <mxPoint x="440" y="400" as="sourcePoint" />
            <mxPoint x="480" y="410" as="targetPoint" />
          </mxGeometry>
        </mxCell>
      </root>
    </mxGraphModel>
  </diagram>
</mxfile>
